<svg width="107" height="100" viewBox="0 0 107 100" fill="none" xmlns="http://www.w3.org/2000/svg">
<g filter="url(#filter0_f_2_1761)">
<path d="M50.2974 12.3648L51.3492 42.2716L83.2432 5.90967L52.9607 43.6234L100.773 36.2631L53.3259 45.6944L94.6852 70.7797L52.2741 47.5156L57.9976 68.0133L50.2974 48.2348L32.7673 93.3088L48.3206 47.5156L5.90955 70.7797L47.2688 45.6944L25.5925 42.2716L47.6341 43.6234L17.3515 5.90967L49.2456 42.2716L50.2974 12.3648Z" fill="#FBF5D1"/>
<path d="M52.8392 43.5259L52.5892 43.8384L52.9847 43.7769L93.7377 37.5024L53.2953 45.5415L52.9027 45.6196L53.2455 45.8276L88.4867 67.2017L52.349 47.3794L52.0248 47.2017L52.1244 47.5571L57.0023 65.0269L50.4427 48.1782L50.2972 47.8062L50.1527 48.1782L35.2123 86.5913L48.4681 47.5659L48.5961 47.187L48.2455 47.3794L12.1146 67.1968L47.349 45.8276L47.7123 45.6069L47.2933 45.5405L28.8422 42.6265L47.6244 43.7788L47.976 43.8003L47.7552 43.5259L21.9535 11.3921L49.1283 42.3745L49.3871 42.6685L49.4008 42.2769L50.2972 16.7856L51.1937 42.2769L51.2074 42.6685L51.4662 42.3745L78.6498 11.3813L52.8392 43.5259Z" stroke="url(#paint0_linear_2_1761)" stroke-width="0.311029"/>
</g>
<circle cx="61.9062" cy="83.4952" r="0.868935" fill="white" stroke="url(#paint1_linear_2_1761)" stroke-width="0.398122"/>
<circle cx="76.9723" cy="80.0953" r="0.868935" fill="white" stroke="url(#paint2_linear_2_1761)" stroke-width="0.398122"/>
<circle opacity="0.4" cx="54.6439" cy="68.1158" r="0.868935" fill="white" stroke="url(#paint3_linear_2_1761)" stroke-width="0.398122"/>
<circle cx="61.4455" cy="49.838" r="0.868935" fill="white" stroke="url(#paint4_linear_2_1761)" stroke-width="0.398122"/>
<circle cx="49.3039" cy="48.2514" r="0.228137" fill="white" stroke="url(#paint5_linear_2_1761)" stroke-width="0.398122"/>
<circle cx="40.7599" cy="37.9985" r="0.228137" fill="white" stroke="url(#paint6_linear_2_1761)" stroke-width="0.398122"/>
<circle opacity="0.7" cx="61.6926" cy="33.7265" r="0.228137" fill="white" stroke="url(#paint7_linear_2_1761)" stroke-width="0.398122"/>
<circle cx="45.4591" cy="63.2031" r="0.228137" fill="white" stroke="url(#paint8_linear_2_1761)" stroke-width="0.398122"/>
<circle cx="48.4495" cy="76.8735" r="0.228137" fill="white" stroke="url(#paint9_linear_2_1761)" stroke-width="0.398122"/>
<circle cx="51.4399" cy="90.5439" r="0.228137" fill="white" stroke="url(#paint10_linear_2_1761)" stroke-width="0.398122"/>
<circle opacity="0.7" cx="69.8094" cy="71.747" r="0.228137" fill="white" stroke="url(#paint11_linear_2_1761)" stroke-width="0.398122"/>
<circle cx="31.7887" cy="69.184" r="0.228137" fill="white" stroke="url(#paint12_linear_2_1761)" stroke-width="0.398122"/>
<circle opacity="0.4" cx="32.6431" cy="32.872" r="0.228137" fill="white" stroke="url(#paint13_linear_2_1761)" stroke-width="0.398122"/>
<circle opacity="0.4" cx="71.091" cy="41.8432" r="0.228137" fill="white" stroke="url(#paint14_linear_2_1761)" stroke-width="0.398122"/>
<circle cx="23.672" cy="19.2016" r="0.228137" fill="white" stroke="url(#paint15_linear_2_1761)" stroke-width="0.398122"/>
<circle opacity="0.4" cx="19.3999" cy="66.6206" r="0.228137" fill="white" stroke="url(#paint16_linear_2_1761)" stroke-width="0.398122"/>
<circle opacity="0.7" cx="42.0415" cy="83.7085" r="0.228137" fill="white" stroke="url(#paint17_linear_2_1761)" stroke-width="0.398122"/>
<circle cx="88.179" cy="52.9501" r="0.228137" fill="white" stroke="url(#paint18_linear_2_1761)" stroke-width="0.398122"/>
<circle opacity="0.7" cx="40.5463" cy="57.8634" r="0.868935" fill="white" stroke="url(#paint19_linear_2_1761)" stroke-width="0.398122"/>
<circle cx="70.4502" cy="25.8234" r="0.868935" fill="white" stroke="url(#paint20_linear_2_1761)" stroke-width="0.398122"/>
<circle opacity="0.4" cx="40.5463" cy="15.9977" r="0.868935" fill="white" stroke="url(#paint21_linear_2_1761)" stroke-width="0.398122"/>
<circle cx="78.9942" cy="51.028" r="0.868935" fill="white" stroke="url(#paint22_linear_2_1761)" stroke-width="0.398122"/>
<circle cx="24.3128" cy="52.3097" r="0.868935" fill="white" stroke="url(#paint23_linear_2_1761)" stroke-width="0.398122"/>
<defs>
<filter id="filter0_f_2_1761" x="-3.33786e-06" y="0.000118732" width="106.683" height="99.218" filterUnits="userSpaceOnUse" color-interpolation-filters="sRGB">
<feFlood flood-opacity="0" result="BackgroundImageFix"/>
<feBlend mode="normal" in="SourceGraphic" in2="BackgroundImageFix" result="shape"/>
<feGaussianBlur stdDeviation="2.95477" result="effect1_foregroundBlur_2_1761"/>
</filter>
<linearGradient id="paint0_linear_2_1761" x1="14.892" y1="56.8323" x2="85.4992" y2="52.7075" gradientUnits="userSpaceOnUse">
<stop stop-color="#EE7639"/>
<stop offset="1" stop-color="white" stop-opacity="0.2"/>
</linearGradient>
<linearGradient id="paint1_linear_2_1761" x1="61.0405" y1="83.6718" x2="62.6311" y2="83.5862" gradientUnits="userSpaceOnUse">
<stop stop-color="#EE7639"/>
<stop offset="1" stop-color="white" stop-opacity="0.2"/>
</linearGradient>
<linearGradient id="paint2_linear_2_1761" x1="76.1065" y1="80.2719" x2="77.6972" y2="80.1863" gradientUnits="userSpaceOnUse">
<stop stop-color="#EE7639"/>
<stop offset="1" stop-color="white" stop-opacity="0.2"/>
</linearGradient>
<linearGradient id="paint3_linear_2_1761" x1="53.7781" y1="68.2924" x2="55.3688" y2="68.2068" gradientUnits="userSpaceOnUse">
<stop stop-color="#EE7639"/>
<stop offset="1" stop-color="white" stop-opacity="0.2"/>
</linearGradient>
<linearGradient id="paint4_linear_2_1761" x1="60.5798" y1="50.0145" x2="62.1704" y2="49.9289" gradientUnits="userSpaceOnUse">
<stop stop-color="#EE7639"/>
<stop offset="1" stop-color="white" stop-opacity="0.2"/>
</linearGradient>
<linearGradient id="paint5_linear_2_1761" x1="48.9576" y1="48.322" x2="49.5938" y2="48.2878" gradientUnits="userSpaceOnUse">
<stop stop-color="#EE7639"/>
<stop offset="1" stop-color="white" stop-opacity="0.2"/>
</linearGradient>
<linearGradient id="paint6_linear_2_1761" x1="40.4136" y1="38.0691" x2="41.0498" y2="38.0349" gradientUnits="userSpaceOnUse">
<stop stop-color="#EE7639"/>
<stop offset="1" stop-color="white" stop-opacity="0.2"/>
</linearGradient>
<linearGradient id="paint7_linear_2_1761" x1="61.3463" y1="33.7971" x2="61.9826" y2="33.7629" gradientUnits="userSpaceOnUse">
<stop stop-color="#EE7639"/>
<stop offset="1" stop-color="white" stop-opacity="0.2"/>
</linearGradient>
<linearGradient id="paint8_linear_2_1761" x1="45.1128" y1="63.2737" x2="45.7491" y2="63.2394" gradientUnits="userSpaceOnUse">
<stop stop-color="#EE7639"/>
<stop offset="1" stop-color="white" stop-opacity="0.2"/>
</linearGradient>
<linearGradient id="paint9_linear_2_1761" x1="48.1032" y1="76.9441" x2="48.7395" y2="76.9099" gradientUnits="userSpaceOnUse">
<stop stop-color="#EE7639"/>
<stop offset="1" stop-color="white" stop-opacity="0.2"/>
</linearGradient>
<linearGradient id="paint10_linear_2_1761" x1="51.0936" y1="90.6145" x2="51.7299" y2="90.5803" gradientUnits="userSpaceOnUse">
<stop stop-color="#EE7639"/>
<stop offset="1" stop-color="white" stop-opacity="0.2"/>
</linearGradient>
<linearGradient id="paint11_linear_2_1761" x1="69.4631" y1="71.8176" x2="70.0994" y2="71.7834" gradientUnits="userSpaceOnUse">
<stop stop-color="#EE7639"/>
<stop offset="1" stop-color="white" stop-opacity="0.2"/>
</linearGradient>
<linearGradient id="paint12_linear_2_1761" x1="31.4424" y1="69.2546" x2="32.0787" y2="69.2204" gradientUnits="userSpaceOnUse">
<stop stop-color="#EE7639"/>
<stop offset="1" stop-color="white" stop-opacity="0.2"/>
</linearGradient>
<linearGradient id="paint13_linear_2_1761" x1="32.2968" y1="32.9426" x2="32.9331" y2="32.9084" gradientUnits="userSpaceOnUse">
<stop stop-color="#EE7639"/>
<stop offset="1" stop-color="white" stop-opacity="0.2"/>
</linearGradient>
<linearGradient id="paint14_linear_2_1761" x1="70.7447" y1="41.9138" x2="71.381" y2="41.8796" gradientUnits="userSpaceOnUse">
<stop stop-color="#EE7639"/>
<stop offset="1" stop-color="white" stop-opacity="0.2"/>
</linearGradient>
<linearGradient id="paint15_linear_2_1761" x1="23.3257" y1="19.2722" x2="23.9619" y2="19.238" gradientUnits="userSpaceOnUse">
<stop stop-color="#EE7639"/>
<stop offset="1" stop-color="white" stop-opacity="0.2"/>
</linearGradient>
<linearGradient id="paint16_linear_2_1761" x1="19.0536" y1="66.6912" x2="19.6899" y2="66.6569" gradientUnits="userSpaceOnUse">
<stop stop-color="#EE7639"/>
<stop offset="1" stop-color="white" stop-opacity="0.2"/>
</linearGradient>
<linearGradient id="paint17_linear_2_1761" x1="41.6952" y1="83.7791" x2="42.3315" y2="83.7448" gradientUnits="userSpaceOnUse">
<stop stop-color="#EE7639"/>
<stop offset="1" stop-color="white" stop-opacity="0.2"/>
</linearGradient>
<linearGradient id="paint18_linear_2_1761" x1="87.8327" y1="53.0208" x2="88.4689" y2="52.9865" gradientUnits="userSpaceOnUse">
<stop stop-color="#EE7639"/>
<stop offset="1" stop-color="white" stop-opacity="0.2"/>
</linearGradient>
<linearGradient id="paint19_linear_2_1761" x1="39.6806" y1="58.0399" x2="41.2712" y2="57.9543" gradientUnits="userSpaceOnUse">
<stop stop-color="#EE7639"/>
<stop offset="1" stop-color="white" stop-opacity="0.2"/>
</linearGradient>
<linearGradient id="paint20_linear_2_1761" x1="69.5845" y1="25.9999" x2="71.1751" y2="25.9143" gradientUnits="userSpaceOnUse">
<stop stop-color="#EE7639"/>
<stop offset="1" stop-color="white" stop-opacity="0.2"/>
</linearGradient>
<linearGradient id="paint21_linear_2_1761" x1="39.6806" y1="16.1742" x2="41.2712" y2="16.0886" gradientUnits="userSpaceOnUse">
<stop stop-color="#EE7639"/>
<stop offset="1" stop-color="white" stop-opacity="0.2"/>
</linearGradient>
<linearGradient id="paint22_linear_2_1761" x1="78.1284" y1="51.2045" x2="79.7191" y2="51.1189" gradientUnits="userSpaceOnUse">
<stop stop-color="#EE7639"/>
<stop offset="1" stop-color="white" stop-opacity="0.2"/>
</linearGradient>
<linearGradient id="paint23_linear_2_1761" x1="23.447" y1="52.4862" x2="25.0377" y2="52.4006" gradientUnits="userSpaceOnUse">
<stop stop-color="#EE7639"/>
<stop offset="1" stop-color="white" stop-opacity="0.2"/>
</linearGradient>
</defs>
</svg>
