<svg width="12" height="12" viewBox="0 0 12 12" fill="none" xmlns="http://www.w3.org/2000/svg">
<g clip-path="url(#clip0_2_1736)">
<path d="M1.59996 2H10.4C10.73 2 11 2.27 11 2.6V8.8C11 9.46 10.46 10 9.79996 10H2.19996C1.53996 10 0.999962 9.46 0.999962 8.8V2.6C0.999962 2.27 1.26996 2 1.59996 2Z" fill="white" fill-opacity="0.16"/>
<path d="M2.49996 3.53L5.93496 6.475C5.96996 6.505 6.02996 6.505 6.06496 6.475L9.49996 3.53M1.59996 2H10.4C10.73 2 11 2.27 11 2.6V8.8C11 9.46 10.46 10 9.79996 10H2.19996C1.53996 10 0.999962 9.46 0.999962 8.8V2.6C0.999962 2.27 1.26996 2 1.59996 2Z" stroke="white" stroke-width="0.75" stroke-linecap="round" stroke-linejoin="round"/>
</g>
<defs>
<clipPath id="clip0_2_1736">
<rect width="12" height="12" fill="white"/>
</clipPath>
</defs>
</svg>
