<svg width="13" height="13" viewBox="0 0 13 13" fill="none" xmlns="http://www.w3.org/2000/svg">
<path d="M3.64 9.01333C3.77791 8.97311 3.92615 8.98932 4.05212 9.05839C4.17808 9.12747 4.27144 9.24375 4.31166 9.38167C4.35189 9.51958 4.33568 9.66782 4.2666 9.79378C4.19753 9.91975 4.08124 10.0131 3.94333 10.0533C3.6725 10.1324 3.4775 10.2158 3.35237 10.2917C3.48129 10.3691 3.68496 10.4558 3.96771 10.5365C4.59333 10.7152 5.48871 10.8333 6.5 10.8333C7.51129 10.8333 8.40666 10.7152 9.03229 10.5365C9.31558 10.4558 9.51871 10.3691 9.64762 10.2917C9.52304 10.2158 9.32804 10.1324 9.05721 10.0533C8.92146 10.0113 8.80766 9.91769 8.74032 9.79256C8.67298 9.66744 8.65751 9.52087 8.69723 9.38445C8.73695 9.24802 8.82868 9.13267 8.95266 9.06325C9.07664 8.99383 9.22293 8.9759 9.36 9.01333C9.72183 9.11896 10.0533 9.25437 10.3079 9.42825C10.5435 9.59021 10.8333 9.87242 10.8333 10.2917C10.8333 10.7158 10.5365 11.0002 10.2971 11.1621C10.0382 11.3365 9.69962 11.4725 9.32966 11.5781C8.58325 11.7921 7.58333 11.9167 6.5 11.9167C5.41666 11.9167 4.41675 11.7921 3.67033 11.5781C3.30037 11.4725 2.96183 11.3365 2.70291 11.1621C2.4635 10.9996 2.16666 10.7158 2.16666 10.2917C2.16666 9.87242 2.45646 9.59021 2.69208 9.42825C2.94666 9.25437 3.27816 9.11896 3.64 9.01333ZM6.5 4.0625C5.66583 4.0625 5.14475 4.96546 5.56183 5.6875C5.75521 6.02279 6.11271 6.22917 6.5 6.22917C7.33416 6.22917 7.85525 5.32621 7.43816 4.60417C7.34308 4.43948 7.20633 4.30273 7.04165 4.20765C6.87697 4.11256 6.69016 4.0625 6.5 4.0625Z" fill="white"/>
<path opacity="0.3" d="M6.5 1.0835C7.57744 1.0835 8.61075 1.51151 9.37262 2.27337C10.1345 3.03524 10.5625 4.06855 10.5625 5.146C10.5625 6.537 9.80417 7.668 9.01875 8.47183C8.70653 8.78812 8.37102 9.08054 8.01504 9.34662C7.69329 9.5882 6.95771 10.041 6.95771 10.041C6.8182 10.1203 6.66047 10.162 6.5 10.162C6.33953 10.162 6.1818 10.1203 6.04229 10.041C5.67724 9.82936 5.32425 9.59753 4.98496 9.34662C4.62898 9.08054 4.29347 8.78812 3.98125 8.47183C3.19583 7.668 2.4375 6.537 2.4375 5.146C2.4375 4.06855 2.86551 3.03524 3.62738 2.27337C4.38925 1.51151 5.42256 1.0835 6.5 1.0835Z" fill="white"/>
</svg>
