<svg width="13" height="13" viewBox="0 0 13 13" fill="none" xmlns="http://www.w3.org/2000/svg">
<path d="M3.88917 5.56292L7.41217 9.06208C7.78971 8.62496 10.1801 6.06233 11.375 9.56258C11.375 9.56258 11.2493 11.375 8.66992 11.375C6.84613 11.375 4.95896 9.18775 3.63783 7.93758C2.50575 6.87483 1.625 5.50008 1.625 4.24992C1.625 1.68783 3.3865 1.625 3.3865 1.625C7.41217 2.99975 3.88971 5.56292 3.88971 5.56292" fill="white" fill-opacity="0.16"/>
<path d="M3.88917 5.56292L7.41217 9.06208C7.78971 8.62496 10.1801 6.06233 11.375 9.56258C11.375 9.56258 11.2493 11.375 8.66992 11.375C6.84613 11.375 4.95896 9.18775 3.63783 7.93758C2.50575 6.87483 1.625 5.50008 1.625 4.24992C1.625 1.68783 3.3865 1.625 3.3865 1.625C7.41217 2.99975 3.88971 5.56292 3.88971 5.56292H3.88917Z" fill="white" fill-opacity="0.1" stroke="white" stroke-width="0.8125" stroke-miterlimit="10" stroke-linejoin="round"/>
</svg>
