<svg width="342" height="260" viewBox="0 0 342 260" fill="none" xmlns="http://www.w3.org/2000/svg">
<g filter="url(#filter0_d_76_168)">
<rect x="38" y="30" width="110" height="54" rx="6" fill="#FEFCE8"/>
</g>
<path d="M83.2836 54.2757L77.3328 53.4109L74.6726 48.0179C74.6 47.8703 74.4805 47.7507 74.3328 47.6781C73.9625 47.4953 73.5125 47.6476 73.3273 48.0179L70.6672 53.4109L64.7164 54.2757C64.5523 54.2992 64.4023 54.3765 64.2875 54.4937C64.1486 54.6364 64.0721 54.8284 64.0748 55.0275C64.0774 55.2266 64.159 55.4165 64.3015 55.5554L68.607 59.7531L67.5898 65.6804C67.566 65.8183 67.5812 65.9601 67.6339 66.0898C67.6865 66.2194 67.7744 66.3317 67.8876 66.414C68.0009 66.4962 68.1349 66.5451 68.2744 66.555C68.414 66.565 68.5536 66.5356 68.6773 66.4703L74 63.6718L79.3226 66.4703C79.468 66.5476 79.6367 66.5734 79.7984 66.5453C80.2062 66.475 80.4805 66.0882 80.4101 65.6804L79.393 59.7531L83.6984 55.5554C83.8156 55.4406 83.893 55.2906 83.9164 55.1265C83.9797 54.7164 83.6937 54.3367 83.2836 54.2757Z" fill="#EE7639"/>
<path d="M97.304 65V61.458H90.726V58.796C90.9607 58.4 91.2173 57.9233 91.496 57.366C91.7893 56.794 92.09 56.178 92.398 55.518C92.706 54.8433 93.0067 54.154 93.3 53.45C93.5933 52.746 93.8573 52.0713 94.092 51.426C94.3267 50.7807 94.5173 50.2013 94.664 49.688H97.81C97.6927 50.2307 97.502 50.8393 97.238 51.514C96.974 52.174 96.6733 52.8633 96.336 53.582C95.9987 54.3007 95.6393 54.9973 95.258 55.672C94.8767 56.332 94.5027 56.9407 94.136 57.498C93.784 58.0407 93.454 58.4807 93.146 58.818H97.304V55.628C97.4507 55.408 97.6193 55.122 97.81 54.77C98.0007 54.4033 98.184 54.022 98.36 53.626C98.5507 53.2153 98.7193 52.8193 98.866 52.438C99.0127 52.0567 99.1227 51.7413 99.196 51.492H100.626V58.818H102.694V61.458H100.626V65H97.304ZM104.899 68.784V68.366C105.412 67.8233 105.794 67.2733 106.043 66.716C106.292 66.1587 106.417 65.5793 106.417 64.978H104.899V61.282H108.287V64.406C108.287 65.242 108.148 66.0267 107.869 66.76C107.605 67.508 107.202 68.1827 106.659 68.784H104.899ZM116.216 65.22C115.116 65.22 114.148 65.0587 113.312 64.736C112.476 64.3987 111.824 63.9073 111.354 63.262C110.9 62.6167 110.672 61.8173 110.672 60.864C110.672 59.94 110.885 59.1993 111.31 58.642C111.75 58.07 112.322 57.63 113.026 57.322V57.234C112.498 56.8967 112.058 56.486 111.706 56.002C111.354 55.518 111.178 54.8507 111.178 54C111.178 53.0613 111.413 52.2767 111.882 51.646C112.352 51.0007 112.982 50.5167 113.774 50.194C114.566 49.8567 115.446 49.688 116.414 49.688C117.382 49.688 118.248 49.8567 119.01 50.194C119.788 50.5167 120.396 51.0007 120.836 51.646C121.291 52.2767 121.518 53.0613 121.518 54C121.518 54.572 121.43 55.0633 121.254 55.474C121.093 55.87 120.873 56.2073 120.594 56.486C120.33 56.7647 120.022 57.014 119.67 57.234V57.322C120.374 57.6447 120.939 58.0847 121.364 58.642C121.804 59.1847 122.024 59.9253 122.024 60.864C122.024 61.788 121.782 62.58 121.298 63.24C120.814 63.8853 120.14 64.3767 119.274 64.714C118.409 65.0513 117.39 65.22 116.216 65.22ZM116.348 62.822C117.096 62.822 117.646 62.6167 117.998 62.206C118.35 61.7953 118.526 61.238 118.526 60.534C118.526 59.83 118.336 59.2873 117.954 58.906C117.573 58.51 117.038 58.312 116.348 58.312C115.644 58.312 115.102 58.5173 114.72 58.928C114.354 59.324 114.17 59.8667 114.17 60.556C114.17 61.2747 114.354 61.832 114.72 62.228C115.087 62.624 115.63 62.822 116.348 62.822ZM116.348 56.288C116.95 56.288 117.434 56.1047 117.8 55.738C118.182 55.3567 118.372 54.8287 118.372 54.154C118.372 53.4793 118.189 52.9587 117.822 52.592C117.456 52.2253 116.957 52.042 116.326 52.042C115.696 52.042 115.197 52.2327 114.83 52.614C114.478 52.9807 114.302 53.494 114.302 54.154C114.302 54.8433 114.493 55.3713 114.874 55.738C115.256 56.1047 115.747 56.288 116.348 56.288Z" fill="#EE7639"/>
<path d="M338.051 77.0859L217.496 191.278L175.796 118.755L38.6559 214.454M338.051 77.0859L293.015 77.103M338.051 77.0859L334.344 121.36" stroke="#EE7639" stroke-width="7.68176" stroke-linecap="round" stroke-linejoin="round"/>
<defs>
<filter id="filter0_d_76_168" x="0" y="0" width="186" height="130" filterUnits="userSpaceOnUse" color-interpolation-filters="sRGB">
<feFlood flood-opacity="0" result="BackgroundImageFix"/>
<feColorMatrix in="SourceAlpha" type="matrix" values="0 0 0 0 0 0 0 0 0 0 0 0 0 0 0 0 0 0 127 0" result="hardAlpha"/>
<feMorphology radius="2" operator="erode" in="SourceAlpha" result="effect1_dropShadow_76_168"/>
<feOffset dy="8"/>
<feGaussianBlur stdDeviation="20"/>
<feColorMatrix type="matrix" values="0 0 0 0 0.0235294 0 0 0 0 0.0470588 0 0 0 0 0.231373 0 0 0 0.08 0"/>
<feBlend mode="normal" in2="BackgroundImageFix" result="effect1_dropShadow_76_168"/>
<feBlend mode="normal" in="SourceGraphic" in2="effect1_dropShadow_76_168" result="shape"/>
</filter>
</defs>
</svg>
