<svg width="22" height="22" viewBox="0 0 22 22" fill="none" xmlns="http://www.w3.org/2000/svg">
<path d="M21.8684 10.9309C21.8709 11.2513 21.7735 11.5646 21.5897 11.8271C21.4059 12.0896 21.1449 12.2884 20.843 12.3957L14.6477 14.6487L12.3957 20.843C12.2847 21.142 12.0849 21.3999 11.823 21.582C11.5612 21.7641 11.2498 21.8618 10.9309 21.8618C10.6119 21.8618 10.3006 21.7641 10.0387 21.582C9.77688 21.3999 9.57703 21.142 9.46604 20.843L7.21311 14.6418L1.01877 12.3957C0.719746 12.2847 0.461851 12.0849 0.279734 11.823C0.0976158 11.5612 0 11.2498 0 10.9309C0 10.6119 0.0976158 10.3006 0.279734 10.0387C0.461851 9.77688 0.719746 9.57703 1.01877 9.46604L7.21994 7.21311L9.46604 1.01877C9.57703 0.719746 9.77688 0.461851 10.0387 0.279734C10.3006 0.0976158 10.6119 0 10.9309 0C11.2498 0 11.5612 0.0976158 11.823 0.279734C12.0849 0.461851 12.2847 0.719746 12.3957 1.01877L14.6487 7.21994L20.843 9.46604C21.1449 9.57339 21.4059 9.77214 21.5897 10.0347C21.7735 10.2972 21.8709 10.6104 21.8684 10.9309Z" fill="#EE7639"/>
</svg>
