<svg width="156" height="315" viewBox="0 0 156 315" fill="none" xmlns="http://www.w3.org/2000/svg">
<g filter="url(#filter0_ii_2_1582)">
<path d="M1.07176 35.6682C1.07176 23.1832 1.07176 16.9407 3.50151 12.172C5.63878 7.97736 9.04912 4.56702 13.2438 2.42975C18.0124 -3.14766e-07 24.2549 -4.23854e-07 36.74 -6.42029e-07L118.665 -2.07367e-06C131.15 -2.29185e-06 137.393 -2.40094e-06 142.162 2.42975C146.356 4.56702 149.767 7.97736 151.904 12.172C154.334 16.9406 154.334 23.1832 154.334 35.6682L154.334 80.8108L154.977 80.8108C155.213 80.8108 155.405 81.0028 155.405 81.2395L155.405 117.679C155.405 117.916 155.213 118.108 154.977 118.108L154.334 118.108L154.334 278.787C154.334 291.272 154.334 297.514 151.904 302.283C149.767 306.477 146.356 309.888 142.162 312.025C137.393 314.455 131.15 314.455 118.665 314.455L36.74 314.455C24.2549 314.455 18.0124 314.455 13.2437 312.025C9.04912 309.888 5.63878 306.477 3.50151 302.283C1.07176 297.514 1.07176 291.272 1.07176 278.787L1.07176 125.61L0.428702 125.61C0.191935 125.61 -2.19168e-06 125.419 -2.18754e-06 125.182L-1.783e-06 102.032C-1.77886e-06 101.795 0.191936 101.603 0.428703 101.603L1.07176 101.603L1.07176 96.2442L0.428703 96.2442C0.191936 96.2442 -1.67851e-06 96.0523 -1.67437e-06 95.8155L-1.26982e-06 72.6654C-1.26569e-06 72.4287 0.191936 72.2367 0.428703 72.2367L1.07176 72.2367L1.07176 62.1622L0.428703 62.1622C0.191936 62.1622 -1.08293e-06 61.9702 -1.07879e-06 61.7335L-8.76516e-07 50.1584C-8.72379e-07 49.9217 0.191937 49.7297 0.428704 49.7297L1.07176 49.7297L1.07176 35.6682Z" fill="#29271A"/>
</g>
<g filter="url(#filter1_i_2_1582)">
<path fill-rule="evenodd" clip-rule="evenodd" d="M5.05283 13.0676C2.78662 17.5153 2.78662 23.3376 2.78662 34.9823L2.78662 279.473C2.78662 291.117 2.78662 296.94 5.05283 301.387C7.04625 305.3 10.227 308.48 14.1393 310.474C18.587 312.74 24.4094 312.74 36.0541 312.74H119.351C130.996 312.74 136.818 312.74 141.266 310.474C145.178 308.48 148.359 305.3 150.353 301.387C152.619 296.94 152.619 291.117 152.619 279.473V34.9823C152.619 23.3376 152.619 17.5153 150.353 13.0676C148.359 9.15527 145.178 5.97447 141.266 3.98106C136.818 1.71484 130.996 1.71484 119.351 1.71484L36.0541 1.71484C24.4094 1.71484 18.587 1.71484 14.1393 3.98106C10.227 5.97447 7.04625 9.15527 5.05283 13.0676ZM8.57413 31.0382C8.57413 22.8749 8.57413 18.7933 10.1628 15.6753C11.5603 12.9327 13.7901 10.7028 16.5327 9.30539C19.6507 7.71671 23.7324 7.71671 31.8957 7.71671H39.0598C39.4146 7.71671 39.5921 7.71671 39.7341 7.76842C39.9723 7.8551 40.1599 8.04271 40.2466 8.28087C40.2983 8.42293 40.2983 8.60035 40.2983 8.95519C40.2983 11.7939 40.2983 13.2132 40.7119 14.3498C41.4054 16.255 42.9063 17.7559 44.8115 18.4494C45.9481 18.863 47.3674 18.863 50.2061 18.863L105.199 18.863C108.038 18.863 109.457 18.863 110.594 18.4494C112.499 17.7559 114 16.255 114.694 14.3498C115.107 13.2132 115.107 11.7939 115.107 8.95519C115.107 8.60035 115.107 8.42293 115.159 8.28087C115.246 8.04271 115.433 7.8551 115.671 7.76842C115.813 7.71671 115.991 7.71671 116.346 7.71671L123.51 7.71671C131.673 7.71671 135.755 7.71671 138.873 9.30539C141.615 10.7028 143.845 12.9327 145.243 15.6753C146.831 18.7933 146.831 22.8749 146.831 31.0382V283.417C146.831 291.58 146.831 295.662 145.243 298.78C143.845 301.522 141.615 303.752 138.873 305.15C135.755 306.738 131.673 306.738 123.51 306.738H31.8957C23.7324 306.738 19.6507 306.738 16.5327 305.15C13.7901 303.752 11.5603 301.522 10.1628 298.78C8.57413 295.662 8.57413 291.58 8.57413 283.417L8.57413 31.0382Z" fill="#F2F2F2"/>
</g>
<g filter="url(#filter2_dii_2_1582)">
<path d="M69.4502 11.7893C69.4502 10.9606 70.122 10.2888 70.9507 10.2888L84.6692 10.2888C85.4979 10.2888 86.1697 10.9606 86.1697 11.7893C86.1697 12.618 85.4979 13.2897 84.6692 13.2897L70.9507 13.2898C70.122 13.2898 69.4502 12.618 69.4502 11.7893Z" fill="#F2F2F2"/>
<path d="M70.9502 10.3962L84.6689 10.3962C85.4383 10.3962 86.0622 11.0195 86.0625 11.7888C86.0625 12.5583 85.4384 13.1824 84.6689 13.1824L70.9502 13.1824C70.1809 13.1821 69.5576 12.5582 69.5576 11.7888C69.5579 11.0197 70.1811 10.3965 70.9502 10.3962Z" stroke="url(#paint0_linear_2_1582)" stroke-width="0.214352"/>
</g>
<g filter="url(#filter3_dii_2_1582)">
<path d="M89.5993 11.7893C89.5993 10.1319 90.9429 8.78833 92.6002 8.78833C94.2576 8.78834 95.6012 10.1319 95.6012 11.7893C95.6012 13.4466 94.2576 14.7902 92.6002 14.7902C90.9429 14.7902 89.5993 13.4466 89.5993 11.7893Z" fill="#F2F2F2"/>
</g>
<g filter="url(#filter4_i_2_1582)">
<path d="M94.1007 11.7893C94.1007 10.9606 93.4289 10.2888 92.6002 10.2888C91.7715 10.2888 91.0997 10.9606 91.0997 11.7893C91.0997 12.618 91.7715 13.2898 92.6002 13.2898C93.4289 13.2898 94.1007 12.618 94.1007 11.7893Z" fill="url(#paint1_radial_2_1582)"/>
<path d="M94.1007 11.7893C94.1007 10.9606 93.4289 10.2888 92.6002 10.2888C91.7715 10.2888 91.0997 10.9606 91.0997 11.7893C91.0997 12.618 91.7715 13.2898 92.6002 13.2898C93.4289 13.2898 94.1007 12.618 94.1007 11.7893Z" fill="url(#paint2_radial_2_1582)" fill-opacity="0.17"/>
<path d="M94.1007 11.7893C94.1007 10.9606 93.4289 10.2888 92.6002 10.2888C91.7715 10.2888 91.0997 10.9606 91.0997 11.7893C91.0997 12.618 91.7715 13.2898 92.6002 13.2898C93.4289 13.2898 94.1007 12.618 94.1007 11.7893Z" fill="url(#paint3_radial_2_1582)" fill-opacity="0.23"/>
</g>
<g style="mix-blend-mode:overlay">
<rect width="1.92917" height="2.35788" transform="matrix(1 8.58033e-07 8.58033e-07 1 120.466 0)" fill="url(#paint4_linear_2_1582)"/>
</g>
<g style="mix-blend-mode:overlay">
<rect width="1.92917" height="2.35788" transform="matrix(-1 1.04647e-06 1.23491e-06 -1 34.9395 314.455)" fill="url(#paint5_linear_2_1582)"/>
</g>
<g style="mix-blend-mode:overlay">
<rect width="1.92917" height="2.35788" transform="matrix(1.10258e-06 1 -1 -1.20686e-06 154.334 32.3672)" fill="url(#paint6_linear_2_1582)"/>
</g>
<g style="mix-blend-mode:overlay">
<rect width="2.14352" height="2.35788" transform="matrix(1.55568e-06 -1 1 -1.29102e-06 1.28613 282.088)" fill="url(#paint7_linear_2_1582)"/>
</g>
<g style="mix-blend-mode:overlay">
<rect width="1.92917" height="2.35788" transform="matrix(1.20686e-06 1 1 1.10258e-06 1.07178 32.3672)" fill="url(#paint8_linear_2_1582)"/>
</g>
<g style="mix-blend-mode:overlay">
<rect width="2.14352" height="2.35788" transform="matrix(1.47945e-06 -1 -1 1.3953e-06 154.119 282.088)" fill="url(#paint9_linear_2_1582)"/>
</g>
<defs>
<filter id="filter0_ii_2_1582" x="0" y="-0.428705" width="155.405" height="315.741" filterUnits="userSpaceOnUse" color-interpolation-filters="sRGB">
<feFlood flood-opacity="0" result="BackgroundImageFix"/>
<feBlend mode="normal" in="SourceGraphic" in2="BackgroundImageFix" result="shape"/>
<feColorMatrix in="SourceAlpha" type="matrix" values="0 0 0 0 0 0 0 0 0 0 0 0 0 0 0 0 0 0 127 0" result="hardAlpha"/>
<feOffset dy="0.857409"/>
<feGaussianBlur stdDeviation="0.428705"/>
<feComposite in2="hardAlpha" operator="arithmetic" k2="-1" k3="1"/>
<feColorMatrix type="matrix" values="0 0 0 0 1 0 0 0 0 1 0 0 0 0 1 0 0 0 0.5 0"/>
<feBlend mode="normal" in2="shape" result="effect1_innerShadow_2_1582"/>
<feColorMatrix in="SourceAlpha" type="matrix" values="0 0 0 0 0 0 0 0 0 0 0 0 0 0 0 0 0 0 127 0" result="hardAlpha"/>
<feOffset dy="-1.50047"/>
<feGaussianBlur stdDeviation="0.214352"/>
<feComposite in2="hardAlpha" operator="arithmetic" k2="-1" k3="1"/>
<feColorMatrix type="matrix" values="0 0 0 0 0 0 0 0 0 0 0 0 0 0 0 0 0 0 0.15 0"/>
<feBlend mode="normal" in2="effect1_innerShadow_2_1582" result="effect2_innerShadow_2_1582"/>
</filter>
<filter id="filter1_i_2_1582" x="2.78662" y="1.71484" width="149.832" height="311.454" filterUnits="userSpaceOnUse" color-interpolation-filters="sRGB">
<feFlood flood-opacity="0" result="BackgroundImageFix"/>
<feBlend mode="normal" in="SourceGraphic" in2="BackgroundImageFix" result="shape"/>
<feColorMatrix in="SourceAlpha" type="matrix" values="0 0 0 0 0 0 0 0 0 0 0 0 0 0 0 0 0 0 127 0" result="hardAlpha"/>
<feOffset dy="0.428705"/>
<feGaussianBlur stdDeviation="0.428705"/>
<feComposite in2="hardAlpha" operator="arithmetic" k2="-1" k3="1"/>
<feColorMatrix type="matrix" values="0 0 0 0 0 0 0 0 0 0 0 0 0 0 0 0 0 0 0.15 0"/>
<feBlend mode="normal" in2="shape" result="effect1_innerShadow_2_1582"/>
</filter>
<filter id="filter2_dii_2_1582" x="68.2713" y="9.53859" width="18.4343" height="5.03732" filterUnits="userSpaceOnUse" color-interpolation-filters="sRGB">
<feFlood flood-opacity="0" result="BackgroundImageFix"/>
<feColorMatrix in="SourceAlpha" type="matrix" values="0 0 0 0 0 0 0 0 0 0 0 0 0 0 0 0 0 0 127 0" result="hardAlpha"/>
<feOffset dx="-0.321528" dy="0.428705"/>
<feGaussianBlur stdDeviation="0.428705"/>
<feColorMatrix type="matrix" values="0 0 0 0 0 0 0 0 0 0 0 0 0 0 0 0 0 0 0.1 0"/>
<feBlend mode="normal" in2="BackgroundImageFix" result="effect1_dropShadow_2_1582"/>
<feBlend mode="normal" in="SourceGraphic" in2="effect1_dropShadow_2_1582" result="shape"/>
<feColorMatrix in="SourceAlpha" type="matrix" values="0 0 0 0 0 0 0 0 0 0 0 0 0 0 0 0 0 0 127 0" result="hardAlpha"/>
<feOffset dx="0.535881" dy="-0.750233"/>
<feGaussianBlur stdDeviation="0.428705"/>
<feComposite in2="hardAlpha" operator="arithmetic" k2="-1" k3="1"/>
<feColorMatrix type="matrix" values="0 0 0 0 1 0 0 0 0 1 0 0 0 0 1 0 0 0 1 0"/>
<feBlend mode="normal" in2="shape" result="effect2_innerShadow_2_1582"/>
<feColorMatrix in="SourceAlpha" type="matrix" values="0 0 0 0 0 0 0 0 0 0 0 0 0 0 0 0 0 0 127 0" result="hardAlpha"/>
<feOffset dx="-0.428705" dy="0.428705"/>
<feGaussianBlur stdDeviation="0.321528"/>
<feComposite in2="hardAlpha" operator="arithmetic" k2="-1" k3="1"/>
<feColorMatrix type="matrix" values="0 0 0 0 0 0 0 0 0 0 0 0 0 0 0 0 0 0 0.1 0"/>
<feBlend mode="normal" in2="effect2_innerShadow_2_1582" result="effect3_innerShadow_2_1582"/>
</filter>
<filter id="filter3_dii_2_1582" x="88.4204" y="8.0381" width="7.71671" height="8.0383" filterUnits="userSpaceOnUse" color-interpolation-filters="sRGB">
<feFlood flood-opacity="0" result="BackgroundImageFix"/>
<feColorMatrix in="SourceAlpha" type="matrix" values="0 0 0 0 0 0 0 0 0 0 0 0 0 0 0 0 0 0 127 0" result="hardAlpha"/>
<feOffset dx="-0.321528" dy="0.428705"/>
<feGaussianBlur stdDeviation="0.428705"/>
<feColorMatrix type="matrix" values="0 0 0 0 0 0 0 0 0 0 0 0 0 0 0 0 0 0 0.1 0"/>
<feBlend mode="normal" in2="BackgroundImageFix" result="effect1_dropShadow_2_1582"/>
<feBlend mode="normal" in="SourceGraphic" in2="effect1_dropShadow_2_1582" result="shape"/>
<feColorMatrix in="SourceAlpha" type="matrix" values="0 0 0 0 0 0 0 0 0 0 0 0 0 0 0 0 0 0 127 0" result="hardAlpha"/>
<feOffset dx="0.535881" dy="-0.750233"/>
<feGaussianBlur stdDeviation="0.428705"/>
<feComposite in2="hardAlpha" operator="arithmetic" k2="-1" k3="1"/>
<feColorMatrix type="matrix" values="0 0 0 0 1 0 0 0 0 1 0 0 0 0 1 0 0 0 1 0"/>
<feBlend mode="normal" in2="shape" result="effect2_innerShadow_2_1582"/>
<feColorMatrix in="SourceAlpha" type="matrix" values="0 0 0 0 0 0 0 0 0 0 0 0 0 0 0 0 0 0 127 0" result="hardAlpha"/>
<feOffset dx="-0.428705" dy="0.428705"/>
<feGaussianBlur stdDeviation="0.321528"/>
<feComposite in2="hardAlpha" operator="arithmetic" k2="-1" k3="1"/>
<feColorMatrix type="matrix" values="0 0 0 0 0 0 0 0 0 0 0 0 0 0 0 0 0 0 0.1 0"/>
<feBlend mode="normal" in2="effect2_innerShadow_2_1582" result="effect3_innerShadow_2_1582"/>
</filter>
<filter id="filter4_i_2_1582" x="90.671" y="10.2888" width="3.42962" height="3.64403" filterUnits="userSpaceOnUse" color-interpolation-filters="sRGB">
<feFlood flood-opacity="0" result="BackgroundImageFix"/>
<feBlend mode="normal" in="SourceGraphic" in2="BackgroundImageFix" result="shape"/>
<feColorMatrix in="SourceAlpha" type="matrix" values="0 0 0 0 0 0 0 0 0 0 0 0 0 0 0 0 0 0 127 0" result="hardAlpha"/>
<feOffset dx="-0.428705" dy="0.643057"/>
<feGaussianBlur stdDeviation="0.321528"/>
<feComposite in2="hardAlpha" operator="arithmetic" k2="-1" k3="1"/>
<feColorMatrix type="matrix" values="0 0 0 0 1 0 0 0 0 1 0 0 0 0 1 0 0 0 0.65 0"/>
<feBlend mode="normal" in2="shape" result="effect1_innerShadow_2_1582"/>
</filter>
<linearGradient id="paint0_linear_2_1582" x1="77.8099" y1="10.2888" x2="77.8099" y2="13.2897" gradientUnits="userSpaceOnUse">
<stop stop-color="white"/>
<stop offset="0.483028" stop-color="#E0E0E0"/>
<stop offset="1" stop-color="white"/>
</linearGradient>
<radialGradient id="paint1_radial_2_1582" cx="0" cy="0" r="1" gradientUnits="userSpaceOnUse" gradientTransform="translate(91.5284 12.9682) rotate(-41.6335) scale(2.58114 2.58115)">
<stop stop-color="#C4D9FD"/>
<stop offset="1" stop-color="#CCD3E0" stop-opacity="0"/>
</radialGradient>
<radialGradient id="paint2_radial_2_1582" cx="0" cy="0" r="1" gradientUnits="userSpaceOnUse" gradientTransform="translate(93.1361 11.8965) rotate(118.61) scale(1.34291 1.34291)">
<stop offset="0.146834" stop-color="#EE62C7"/>
<stop offset="1" stop-color="#B36B16" stop-opacity="0"/>
</radialGradient>
<radialGradient id="paint3_radial_2_1582" cx="0" cy="0" r="1" gradientTransform="matrix(-0.750231 2.35788 -2.35788 -0.750235 92.9217 10.6103)" gradientUnits="userSpaceOnUse">
<stop stop-color="#6BDCD5"/>
<stop offset="1" stop-color="#15368A" stop-opacity="0"/>
</radialGradient>
<linearGradient id="paint4_linear_2_1582" x1="0.964585" y1="0" x2="0.964585" y2="2.35788" gradientUnits="userSpaceOnUse">
<stop offset="0.71828" stop-color="white"/>
<stop offset="0.792202" stop-color="#272727" stop-opacity="0.3"/>
<stop offset="1" stop-opacity="0"/>
</linearGradient>
<linearGradient id="paint5_linear_2_1582" x1="0.964585" y1="0" x2="0.964585" y2="2.35788" gradientUnits="userSpaceOnUse">
<stop offset="0.71828"/>
<stop offset="0.792202" stop-color="#272727" stop-opacity="0.3"/>
<stop offset="1" stop-opacity="0"/>
</linearGradient>
<linearGradient id="paint6_linear_2_1582" x1="0.964585" y1="0" x2="0.964585" y2="2.35788" gradientUnits="userSpaceOnUse">
<stop offset="0.71828" stop-color="white"/>
<stop offset="0.792202" stop-color="#272727" stop-opacity="0.3"/>
<stop offset="1" stop-opacity="0"/>
</linearGradient>
<linearGradient id="paint7_linear_2_1582" x1="1.07176" y1="0" x2="1.07176" y2="2.35788" gradientUnits="userSpaceOnUse">
<stop offset="0.71828"/>
<stop offset="0.792202" stop-color="#272727" stop-opacity="0.3"/>
<stop offset="1" stop-opacity="0"/>
</linearGradient>
<linearGradient id="paint8_linear_2_1582" x1="0.964585" y1="0" x2="0.964585" y2="2.35788" gradientUnits="userSpaceOnUse">
<stop offset="0.71828" stop-color="white"/>
<stop offset="0.792202" stop-color="#272727" stop-opacity="0.3"/>
<stop offset="1" stop-opacity="0"/>
</linearGradient>
<linearGradient id="paint9_linear_2_1582" x1="1.07176" y1="0" x2="1.07176" y2="2.35788" gradientUnits="userSpaceOnUse">
<stop offset="0.71828"/>
<stop offset="0.792202" stop-color="#272727" stop-opacity="0.3"/>
<stop offset="1" stop-opacity="0"/>
</linearGradient>
</defs>
</svg>
