<svg width="40" height="40" viewBox="0 0 40 40" fill="none" xmlns="http://www.w3.org/2000/svg">
<path d="M15.6333 20.0384C16.7586 21.0134 18.1779 21.5836 19.665 21.6582C21.1521 21.7328 22.6213 21.3074 23.8385 20.4499C25.0557 19.5924 25.9508 18.352 26.3811 16.9266C26.8114 15.5012 26.7522 13.9728 26.2128 12.585C25.6735 11.1972 24.6851 10.0299 23.4051 9.26912C22.1252 8.50837 20.6275 8.19799 19.1506 8.38745C17.6738 8.57691 16.3029 9.25531 15.2564 10.3145C14.21 11.3737 13.5482 12.7527 13.3767 14.2317C12.7833 17.2484 12.79 20.8434 14.15 24.0651C15.5867 27.4651 18.485 30.3317 23.4333 31.6267C23.5927 31.6701 23.759 31.6814 23.9228 31.6601C24.0866 31.6387 24.2445 31.5852 24.3874 31.5025C24.5303 31.4198 24.6555 31.3095 24.7556 31.1782C24.8557 31.0468 24.9288 30.897 24.9706 30.7372C25.0124 30.5775 25.0222 30.411 24.9993 30.2474C24.9765 30.0839 24.9214 29.9265 24.8374 29.7843C24.7533 29.6422 24.6419 29.5181 24.5096 29.4192C24.3774 29.3204 24.2268 29.2487 24.0667 29.2084C19.8483 28.1034 17.58 25.7584 16.4533 23.0917C16.047 22.1144 15.7713 21.0878 15.6333 20.0384Z" fill="#EE7639"/>
</svg>
