<svg width="31" height="28" viewBox="0 0 31 28" fill="none" xmlns="http://www.w3.org/2000/svg">
<path d="M15.3203 0C23.7816 0 30.6414 6.8591 30.6416 15.3203C30.6416 17.6294 30.1287 19.8186 29.2139 21.7822C25.6098 22.5108 21.2141 23.7643 18.2979 25.8447C14.6638 28.4372 9.08098 27.8492 5.5 27.0791C2.13873 24.2687 0 20.0444 0 15.3203C0.000239153 6.85925 6.85925 0.000239139 15.3203 0Z" fill="#EE7639"/>
<mask id="mask0_2_1836" style="mask-type:luminance" maskUnits="userSpaceOnUse" x="0" y="0" width="31" height="28">
<path d="M15.3203 0C23.7816 0 30.6414 6.8591 30.6416 15.3203C30.6416 17.6294 30.1287 19.8186 29.2139 21.7822C25.6098 22.5108 21.2141 23.7643 18.2979 25.8447C14.6638 28.4372 9.08098 27.8492 5.5 27.0791C2.13873 24.2687 0 20.0444 0 15.3203C0.000239153 6.85925 6.85925 0.000239139 15.3203 0Z" fill="white"/>
</mask>
<g mask="url(#mask0_2_1836)">
</g>
<path d="M15.0435 9.93188L19.4757 14.1626L15.0435 18.3933" stroke="#0D1E33" stroke-linecap="round" stroke-linejoin="round"/>
<path d="M19.4759 14.1626L10.8485 14.1626" stroke="#0D1E33" stroke-width="0.924367" stroke-linecap="round" stroke-linejoin="round"/>
</svg>
