<svg width="31" height="28" viewBox="0 0 31 28" fill="none" xmlns="http://www.w3.org/2000/svg">
<path d="M15.3213 0C6.86002 0 0.000238419 6.8591 0 15.3203C0 17.6294 0.512938 19.8186 1.42773 21.7822C5.03183 22.5108 9.42749 23.7643 12.3438 25.8447C15.9778 28.4372 21.5606 27.8492 25.1416 27.0791C28.5029 24.2687 30.6416 20.0444 30.6416 15.3203C30.6414 6.85925 23.7824 0.000239139 15.3213 0Z" fill="#EE7639"/>
<mask id="mask0_2_1820" style="mask-type:luminance" maskUnits="userSpaceOnUse" x="0" y="0" width="31" height="29">
<path d="M7.35059 0C3.29117 0 0 3.29117 0 7.35059V21.5146C3.80251 22.1861 9.029 23.48 12.3438 25.8447C18.0511 29.9162 28.5659 26.1455 28.582 26.1396L28.7217 28.2441C29.914 26.9376 30.6416 25.1993 30.6416 23.291V7.35059C30.6416 3.29117 27.3504 0 23.291 0H7.35059Z" fill="white"/>
</mask>
<g mask="url(#mask0_2_1820)">
</g>
<path d="M15.5982 9.93188L11.166 14.1626L15.5982 18.3933" stroke="#0D1E33" stroke-linecap="round" stroke-linejoin="round"/>
<path d="M11.1658 14.1626L19.7931 14.1626" stroke="#0D1E33" stroke-width="0.924367" stroke-linecap="round" stroke-linejoin="round"/>
</svg>
