<svg width="40" height="40" viewBox="0 0 40 40" fill="none" xmlns="http://www.w3.org/2000/svg">
<path d="M24.3666 20.0381C23.2413 21.0132 21.822 21.5834 20.3349 21.658C18.8479 21.7326 17.3786 21.3072 16.1614 20.4496C14.9442 19.5921 14.0492 18.3518 13.6188 16.9264C13.1885 15.501 13.2478 13.9726 13.7871 12.5848C14.3265 11.1969 15.3149 10.0296 16.5948 9.26887C17.8747 8.50813 19.3725 8.19775 20.8493 8.38721C22.3262 8.57667 23.6971 9.25506 24.7435 10.3143C25.79 11.3734 26.4517 12.7525 26.6233 14.2315C27.2166 17.2481 27.2099 20.8431 25.8499 24.0648C24.4133 27.4648 21.5149 30.3315 16.5666 31.6265C16.4073 31.6698 16.2409 31.6811 16.0771 31.6598C15.9134 31.6385 15.7555 31.5849 15.6125 31.5022C15.4696 31.4195 15.3445 31.3093 15.2444 31.1779C15.1443 31.0466 15.0712 30.8967 15.0294 30.737C14.9875 30.5772 14.9777 30.4108 15.0006 30.2472C15.0235 30.0836 15.0785 29.9263 15.1626 29.7841C15.2466 29.6419 15.358 29.5179 15.4903 29.419C15.6226 29.3201 15.7731 29.2485 15.9333 29.2081C20.1516 28.1031 22.4199 25.7581 23.5466 23.0915C23.953 22.1142 24.2287 21.0875 24.3666 20.0381Z" fill="#EE7639"/>
</svg>
