<svg width="305" height="352" viewBox="0 0 305 352" fill="none" xmlns="http://www.w3.org/2000/svg">
<path d="M480.619 271.292C480.689 271.292 480.746 271.349 480.746 271.419C480.746 271.489 480.689 271.546 480.619 271.546H456.929L471.514 274.792H480.619C480.689 274.792 480.746 274.849 480.746 274.919C480.745 274.989 480.689 275.046 480.619 275.046H472.656L480.646 276.824L480.692 276.845C480.732 276.873 480.754 276.924 480.743 276.975C480.731 277.027 480.69 277.063 480.641 277.072L480.591 277.071L471.489 275.046H437.098L451.586 278.673H480.619C480.689 278.673 480.746 278.73 480.746 278.8C480.746 278.87 480.689 278.926 480.619 278.927H452.6L468.881 283.003H480.619C480.689 283.003 480.746 283.06 480.746 283.13C480.746 283.2 480.689 283.257 480.619 283.257H469.896L480.65 285.949C480.718 285.966 480.759 286.035 480.742 286.103C480.725 286.171 480.656 286.212 480.589 286.195L468.851 283.257H430.228L446.329 287.864H480.619C480.689 287.864 480.746 287.921 480.746 287.991C480.746 288.061 480.689 288.118 480.619 288.118H447.215L465.541 293.362H480.619C480.689 293.362 480.746 293.419 480.746 293.489C480.746 293.559 480.689 293.616 480.619 293.616H466.428L480.655 297.687L480.699 297.711C480.737 297.742 480.756 297.794 480.742 297.845C480.722 297.912 480.652 297.951 480.585 297.932L465.505 293.616H421.595L439.616 299.633H480.619C480.689 299.633 480.746 299.69 480.746 299.76C480.746 299.83 480.689 299.886 480.619 299.887H440.377L461.219 306.846H480.619C480.689 306.846 480.746 306.903 480.746 306.973C480.746 307.042 480.689 307.099 480.619 307.1H461.98L480.659 313.336C480.725 313.358 480.762 313.43 480.74 313.497C480.718 313.563 480.645 313.599 480.579 313.577L461.178 307.1H410.423L430.719 315.231H480.619C480.689 315.232 480.745 315.288 480.746 315.358C480.746 315.428 480.689 315.485 480.619 315.485H431.353L455.36 325.103H480.619C480.689 325.104 480.745 325.161 480.746 325.23C480.746 325.3 480.689 325.357 480.619 325.357H455.994L480.667 335.242C480.732 335.268 480.763 335.343 480.737 335.408C480.717 335.457 480.671 335.486 480.622 335.487L480.572 335.478L455.31 325.357H395.308L418.348 336.897H480.619C480.689 336.898 480.746 336.954 480.746 337.024C480.746 337.094 480.689 337.151 480.619 337.151H418.855L446.97 351.233H480.619C480.689 351.233 480.746 351.29 480.746 351.36C480.746 351.43 480.689 351.487 480.619 351.487H447.477L480.675 368.115L480.715 368.146C480.747 368.184 480.756 368.238 480.732 368.285C480.709 368.332 480.66 368.358 480.611 368.355L480.562 368.342L446.912 351.487H373.753L400.019 369.031H480.619C480.689 369.031 480.746 369.088 480.746 369.158C480.745 369.228 480.689 369.285 480.619 369.285H400.399L433.98 391.715H480.619C480.689 391.715 480.746 391.772 480.746 391.842C480.746 391.912 480.689 391.968 480.619 391.969H434.361L478.752 421.618H480.619C480.689 421.618 480.746 421.675 480.746 421.745C480.746 421.815 480.689 421.872 480.619 421.872H479.131L480.69 422.913L480.725 422.948C480.753 422.989 480.754 423.045 480.725 423.089C480.696 423.133 480.644 423.152 480.595 423.142L480.548 423.124L478.674 421.872H370.266L411.15 462.844H480.619C480.689 462.844 480.746 462.901 480.746 462.971C480.746 463.041 480.689 463.097 480.619 463.098H411.403L480.006 531.847C480.028 531.87 480.043 531.901 480.043 531.936C480.042 532.006 479.986 532.063 479.916 532.063H-175.198C-175.236 532.063 -175.27 532.045 -175.293 532.018C-175.297 532.014 -175.299 532.009 -175.302 532.004C-175.306 531.997 -175.313 531.992 -175.316 531.984C-175.33 531.95 -175.327 531.91 -175.309 531.877C-175.303 531.866 -175.297 531.855 -175.288 531.847L-106.57 463.098H-175.337C-175.407 463.098 -175.464 463.041 -175.464 462.971C-175.464 462.901 -175.407 462.844 -175.337 462.844H-106.316L-65.3627 421.872H-173.769L-175.268 422.872C-175.326 422.911 -175.405 422.895 -175.444 422.837C-175.482 422.779 -175.467 422.7 -175.409 422.661L-174.226 421.872H-175.337C-175.407 421.872 -175.464 421.815 -175.464 421.745C-175.464 421.675 -175.407 421.618 -175.337 421.618H-173.845L-129.404 391.969H-175.337C-175.407 391.969 -175.464 391.912 -175.464 391.842C-175.464 391.772 -175.407 391.715 -175.337 391.715H-129.023L-95.4027 369.285H-175.337C-175.407 369.285 -175.464 369.228 -175.464 369.158C-175.464 369.088 -175.407 369.031 -175.337 369.031H-95.0218L-68.725 351.487H-141.884L-175.281 368.2L-175.329 368.213C-175.379 368.216 -175.427 368.19 -175.451 368.143C-175.482 368.081 -175.457 368.004 -175.394 367.973L-142.452 351.487H-175.337C-175.407 351.487 -175.464 351.43 -175.464 351.36C-175.464 351.29 -175.407 351.233 -175.337 351.233H-141.945L-113.805 337.151H-175.337C-175.407 337.151 -175.464 337.094 -175.464 337.024C-175.464 336.954 -175.407 336.897 -175.337 336.897H-113.297L-90.2377 325.357H-150.234L-175.29 335.39C-175.355 335.415 -175.429 335.384 -175.455 335.319C-175.481 335.254 -175.449 335.18 -175.384 335.154L-150.916 325.357H-175.337C-175.407 325.357 -175.464 325.3 -175.464 325.23C-175.464 325.16 -175.407 325.103 -175.337 325.103H-150.282L-126.26 315.485H-175.337C-175.407 315.485 -175.464 315.428 -175.464 315.358C-175.464 315.288 -175.407 315.231 -175.337 315.231H-125.625L-105.316 307.1H-156.078L-175.298 313.513C-175.365 313.535 -175.436 313.499 -175.458 313.433C-175.481 313.366 -175.445 313.295 -175.378 313.272L-156.878 307.1H-175.337C-175.407 307.1 -175.464 307.043 -175.464 306.973C-175.464 306.902 -175.407 306.846 -175.337 306.846H-156.118L-135.262 299.887H-175.337C-175.407 299.887 -175.464 299.83 -175.464 299.76C-175.464 299.69 -175.407 299.633 -175.337 299.633H-134.5L-116.469 293.616H-160.382L-175.303 297.884C-175.37 297.903 -175.441 297.864 -175.46 297.797C-175.48 297.729 -175.441 297.659 -175.373 297.64L-161.306 293.616H-175.337C-175.407 293.616 -175.464 293.559 -175.464 293.489C-175.464 293.419 -175.407 293.362 -175.337 293.362H-160.418L-142.082 288.118H-175.337C-175.407 288.118 -175.464 288.061 -175.464 287.991C-175.464 287.921 -175.407 287.864 -175.337 287.864H-141.195L-125.085 283.257H-163.703L-175.307 286.161C-175.375 286.178 -175.444 286.136 -175.461 286.068C-175.478 286 -175.437 285.932 -175.37 285.915L-164.747 283.257H-175.337C-175.407 283.257 -175.464 283.2 -175.464 283.13C-175.464 283.06 -175.407 283.003 -175.337 283.003H-163.733L-147.445 278.927H-175.337C-175.407 278.927 -175.464 278.87 -175.464 278.8C-175.464 278.73 -175.407 278.673 -175.337 278.673H-146.431L-131.938 275.046H-166.329L-175.311 277.044C-175.379 277.059 -175.447 277.016 -175.462 276.948C-175.478 276.88 -175.434 276.812 -175.366 276.797L-167.496 275.046H-175.337C-175.407 275.046 -175.464 274.989 -175.464 274.919C-175.464 274.849 -175.407 274.792 -175.337 274.792H-166.356L-151.767 271.546H-175.337C-175.407 271.546 -175.464 271.489 -175.464 271.419C-175.464 271.349 -175.407 271.292 -175.337 271.292H480.619ZM-174.893 531.809H-11.4994L22.8717 463.098H-106.211L-174.893 531.809ZM-11.2162 531.809H152.231L152.291 463.098H23.1549L-11.2162 531.809ZM152.485 531.809H315.933L281.68 463.098H152.545L152.485 531.809ZM316.217 531.809H479.609L411.045 463.098H281.964L316.217 531.809ZM-105.957 462.844H22.9987L43.4928 421.872H-65.0033L-105.957 462.844ZM23.2819 462.844H152.291L152.327 421.872H43.777L23.2819 462.844ZM152.545 462.844H281.554L261.131 421.872H152.581L152.545 462.844ZM281.839 462.844H410.792L369.908 421.872H261.414L281.839 462.844ZM-128.947 391.969L-173.388 421.618H-65.1088L-35.473 391.969H-128.947ZM-35.1136 391.969L-64.7494 421.618H43.6207L58.4518 391.969H-35.1136ZM58.735 391.969L43.9039 421.618H152.327L152.352 391.969H58.735ZM152.606 391.969L152.581 421.618H261.004L246.223 391.969H152.606ZM246.507 391.969L261.288 421.618H369.655L340.069 391.969H246.507ZM340.427 391.969L370.013 421.618H478.294L433.903 391.969H340.427ZM-128.566 391.715H-35.2191L-12.7992 369.285H-94.9457L-128.566 391.715ZM-34.8597 391.715H58.5787L69.7985 369.285H-12.4398L-34.8597 391.715ZM58.8619 391.715H152.352L152.372 369.285H70.0817L58.8619 391.715ZM152.606 391.715H246.096L234.916 369.285H152.626L152.606 391.715ZM246.381 391.715H339.816L317.434 369.285H235.199L246.381 391.715ZM340.174 391.715H433.523L399.942 369.285H317.793L340.174 391.715ZM-94.5648 369.031H-12.5453L4.99084 351.487H-68.2679L-94.5648 369.031ZM-12.1859 369.031H69.9254L78.7008 351.487H5.35022L-12.1859 369.031ZM70.2086 369.031H152.372L152.387 351.487H78.985L70.2086 369.031ZM152.626 369.031H234.789L226.044 351.487H152.641L152.626 369.031ZM235.073 369.031H317.18L299.674 351.487H226.327L235.073 369.031ZM317.539 369.031H399.562L373.296 351.487H300.033L317.539 369.031ZM-141.376 351.233H-68.3441L-47.2367 337.151H-113.237L-141.376 351.233ZM-67.8871 351.233H5.24475L19.3209 337.151H-46.7797L-67.8871 351.233ZM5.60413 351.233H78.8278L85.8717 337.151H19.6803L5.60413 351.233ZM79.1119 351.233H152.387L152.4 337.151H86.1559L79.1119 351.233ZM152.641 351.233H225.917L218.897 337.151H152.654L152.641 351.233ZM226.2 351.233H299.422L285.37 337.151H219.18L226.2 351.233ZM299.78 351.233H372.915L351.832 337.151H285.728L299.78 351.233ZM373.372 351.233H446.405L418.29 337.151H352.289L373.372 351.233ZM-112.73 336.897H-46.8568L-29.559 325.357H-89.6693L-112.73 336.897ZM-46.3998 336.897H19.5748L31.11 325.357H-29.1019L-46.3998 336.897ZM19.9342 336.897H85.9987L91.7711 325.357H31.4694L19.9342 336.897ZM86.2829 336.897H152.4L152.41 325.357H92.0553L86.2829 336.897ZM152.654 336.897H218.771L213.018 325.357H152.664L152.654 336.897ZM219.054 336.897H285.117L273.601 325.357H213.301L219.054 336.897ZM285.475 336.897H351.452L334.174 325.357H273.96L285.475 336.897ZM351.908 336.897H417.783L394.743 325.357H334.631L351.908 336.897ZM-149.6 325.103H-89.7299L-70.5101 315.485H-125.578L-149.6 325.103ZM-89.1625 325.103H-29.1781L-14.7611 315.485H-69.9427L-89.1625 325.103ZM-28.7211 325.103H31.3639L40.9781 315.485H-14.3041L-28.7211 325.103ZM31.7233 325.103H91.8981L96.7096 315.485H41.3375L31.7233 325.103ZM92.1823 325.103H152.41L152.419 315.485H96.9938L92.1823 325.103ZM152.664 325.103H212.892L208.097 315.485H152.673L152.664 325.103ZM213.175 325.103H273.348L263.751 315.485H208.381L213.175 325.103ZM273.707 325.103H333.795L319.394 315.485H264.109L273.707 325.103ZM334.251 325.103H394.236L375.033 315.485H319.85L334.251 325.103ZM394.801 325.103H454.676L430.67 315.485H375.598L394.801 325.103ZM-124.944 315.231H-70.0033L-53.7533 307.1H-104.633L-124.944 315.231ZM-69.4349 315.231H-14.3802L-2.19177 307.1H-53.1859L-69.4349 315.231ZM-13.9232 315.231H41.2321L49.36 307.1H-1.73474L-13.9232 315.231ZM41.5914 315.231H96.8366L100.904 307.1H49.7194L41.5914 315.231ZM97.1207 315.231H152.419L152.425 307.1H101.188L97.1207 315.231ZM152.673 315.231H207.97L203.917 307.1H152.679L152.673 315.231ZM208.254 315.231H263.497L255.382 307.1H204.2L208.254 315.231ZM263.855 315.231H319.014L306.839 307.1H255.741L263.855 315.231ZM319.47 315.231H374.526L358.291 307.1H307.296L319.47 315.231ZM375.091 315.231H430.036L409.739 307.1H358.856L375.091 315.231ZM-155.318 306.846H-104.681L-87.3011 299.887H-134.462L-155.318 306.846ZM-103.998 306.846H-53.2455L-39.3392 299.887H-86.6175L-103.998 306.846ZM-52.6781 306.846H-1.81091L8.61975 299.887H-38.7719L-52.6781 306.846ZM-1.35388 306.846H49.6139L56.5699 299.887H9.07678L-1.35388 306.846ZM49.9733 306.846H101.031L104.511 299.887H56.9293L49.9733 306.846ZM101.315 306.846H152.426L152.432 299.887H104.797L101.315 306.846ZM152.68 306.846H203.791L200.322 299.887H152.686L152.68 306.846ZM204.074 306.846H255.129L248.184 299.887H200.605L204.074 306.846ZM255.488 306.846H306.459L296.04 299.887H248.544L255.488 306.846ZM306.916 306.846H357.784L343.89 299.887H296.497L306.916 306.846ZM358.349 306.846H409.105L391.736 299.887H344.456L358.349 306.846ZM409.789 306.846H460.418L439.575 299.887H392.42L409.789 306.846ZM-133.701 299.633H-86.6664L-71.64 293.616H-115.669L-133.701 299.633ZM-85.9838 299.633H-38.8324L-26.809 293.616H-70.9564L-85.9838 299.633ZM-38.265 299.633H9.00061L18.0182 293.616H-26.2416L-38.265 299.633ZM9.45764 299.633H56.8239L62.8375 293.616H18.4752L9.45764 299.633ZM57.1832 299.633H104.638L107.648 293.616H63.1969L57.1832 299.633ZM104.923 299.633H152.433L152.438 293.616H107.933L104.923 299.633ZM152.687 299.633H200.195L197.196 293.616H152.692L152.687 299.633ZM200.478 299.633H247.931L241.927 293.616H197.479L200.478 299.633ZM248.291 299.633H295.66L286.652 293.616H242.287L248.291 299.633ZM296.117 299.633H343.383L331.371 293.616H287.109L296.117 299.633ZM343.949 299.633H391.102L376.085 293.616H331.936L343.949 299.633ZM391.786 299.633H438.814L420.794 293.616H376.768L391.786 299.633ZM-159.495 293.362H-115.708L-99.9916 288.118H-141.159L-159.495 293.362ZM-114.909 293.362H-71.0062L-57.9086 288.118H-99.1918L-114.909 293.362ZM-70.3226 293.362H-26.3021L-15.8226 288.118H-57.225L-70.3226 293.362ZM-25.7347 293.362H18.399L26.2594 288.118H-15.2552L-25.7347 293.362ZM18.8561 293.362H63.0914L68.3326 288.118H26.7164L18.8561 293.362ZM63.4508 293.362H107.775L110.398 288.118H68.692L63.4508 293.362ZM108.06 293.362H152.438L152.443 288.118H110.683L108.06 293.362ZM152.692 293.362H197.069L194.455 288.118H152.697L152.692 293.362ZM197.352 293.362H241.674L236.441 288.118H194.738L197.352 293.362ZM242.034 293.362H286.272L278.421 288.118H236.8L242.034 293.362ZM286.729 293.362H330.864L320.393 288.118H278.878L286.729 293.362ZM331.429 293.362H375.451L362.361 288.118H320.96L331.429 293.362ZM376.134 293.362H420.034L404.327 288.118H363.045L376.134 293.362ZM420.835 293.362H464.617L446.292 288.118H405.128L420.835 293.362ZM-140.271 287.864H-99.2308L-85.4222 283.257H-124.161L-140.271 287.864ZM-98.431 287.864H-57.2738L-45.767 283.257H-84.6224L-98.431 287.864ZM-56.5912 287.864H-15.3158L-6.10876 283.257H-45.0834L-56.5912 287.864ZM-14.7484 287.864H26.6403L33.5465 283.257H-5.54138L-14.7484 287.864ZM27.0973 287.864H68.5865L73.192 283.257H34.0035L27.0973 287.864ZM68.9459 287.864H110.525L112.83 283.257H73.5514L68.9459 287.864ZM110.81 287.864H152.443L152.447 283.257H113.115L110.81 287.864ZM152.697 287.864H194.329L192.032 283.257H152.701L152.697 287.864ZM194.612 287.864H236.188L231.59 283.257H192.315L194.612 287.864ZM236.548 287.864H278.041L271.142 283.257H231.95L236.548 287.864ZM278.498 287.864H319.886L310.687 283.257H271.599L278.498 287.864ZM320.453 287.864H361.727L350.227 283.257H311.254L320.453 287.864ZM362.411 287.864H403.566L389.766 283.257H350.911L362.411 287.864ZM404.367 287.864H445.405L429.304 283.257H390.567L404.367 287.864ZM-162.688 283.003H-124.198L-109.946 278.927H-146.4L-162.688 283.003ZM-123.274 283.003H-84.6615L-72.4447 278.927H-109.022L-123.274 283.003ZM-83.8617 283.003H-45.1322L-34.9515 278.927H-71.6449L-83.8617 283.003ZM-44.4486 283.003H-5.60095L2.54456 278.927H-34.2679L-44.4486 283.003ZM-5.03455 283.003H33.9274L40.0367 278.927H3.11096L-5.03455 283.003ZM34.3844 283.003H73.4459L77.5201 278.927H40.4938L34.3844 283.003ZM73.8053 283.003H112.958L114.997 278.927H77.8795L73.8053 283.003ZM113.242 283.003H152.447L152.451 278.927H115.281L113.242 283.003ZM152.701 283.003H191.905L189.873 278.927H152.705L152.701 283.003ZM192.188 283.003H231.338L227.27 278.927H190.156L192.188 283.003ZM231.696 283.003H270.762L264.66 278.927H227.629L231.696 283.003ZM271.218 283.003H310.18L302.042 278.927H265.116L271.218 283.003ZM310.747 283.003H349.593L339.42 278.927H302.608L310.747 283.003ZM350.277 283.003H389.006L376.798 278.927H340.103L350.277 283.003ZM389.806 283.003H428.418L414.173 278.927H377.597L389.806 283.003ZM429.341 283.003H467.837L451.555 278.927H415.097L429.341 283.003ZM-145.386 278.673H-109.058L-96.3763 275.046H-130.893L-145.386 278.673ZM-108.134 278.673H-71.684L-60.8138 275.046H-95.4535L-108.134 278.673ZM-70.8841 278.673H-34.3177L-25.2592 275.046H-60.014L-70.8841 278.673ZM-33.6342 278.673H3.05139L10.2994 275.046H-24.5756L-33.6342 278.673ZM3.6178 278.673H40.4176L45.8541 275.046H10.8658L3.6178 278.673ZM40.8746 278.673H77.774L81.4 275.046H46.3112L40.8746 278.673ZM78.1334 278.673H115.124L116.937 275.046H81.7594L78.1334 278.673ZM115.408 278.673H152.451L152.454 275.046H117.221L115.408 278.673ZM152.705 278.673H189.747L187.938 275.046H152.708L152.705 278.673ZM190.03 278.673H227.016L223.397 275.046H188.221L190.03 278.673ZM227.376 278.673H264.28L258.849 275.046H223.756L227.376 278.673ZM264.736 278.673H301.535L294.294 275.046H259.305L264.736 278.673ZM302.101 278.673H338.786L329.733 275.046H294.86L302.101 278.673ZM339.469 278.673H376.038L365.174 275.046H330.417L339.469 278.673ZM376.837 278.673H413.286L400.612 275.046H365.973L376.837 278.673ZM414.21 278.673H450.541L436.053 275.046H401.536L414.21 278.673ZM-165.188 274.792H-130.923L-117.953 271.546H-150.596L-165.188 274.792ZM-129.878 274.792H-95.4886L-84.139 271.546H-116.908L-129.878 274.792ZM-94.5648 274.792H-60.0531L-50.3246 271.546H-83.2152L-94.5648 274.792ZM-59.2533 274.792H-24.6254L-16.5179 271.546H-49.5248L-59.2533 274.792ZM-23.9408 274.792H10.8063L17.2926 271.546H-15.8334L-23.9408 274.792ZM11.3737 274.792H46.235L51.1002 271.546H17.86L11.3737 274.792ZM46.692 274.792H81.653L84.8981 271.546H51.5573L46.692 274.792ZM82.0123 274.792H117.064L118.688 271.546H85.2575L82.0123 274.792ZM117.348 274.792H152.454L152.457 271.546H118.972L117.348 274.792ZM152.708 274.792H187.812L186.194 271.546H152.711L152.708 274.792ZM188.095 274.792H223.144L219.905 271.546H186.477L188.095 274.792ZM223.503 274.792H258.469L253.609 271.546H220.263L223.503 274.792ZM258.925 274.792H293.787L287.306 271.546H254.065L258.925 274.792ZM294.353 274.792H329.099L320.997 271.546H287.872L294.353 274.792ZM329.783 274.792H364.414L354.691 271.546H321.68L329.783 274.792ZM365.214 274.792H399.725L388.381 271.546H355.491L365.214 274.792ZM400.649 274.792H435.039L422.073 271.546H389.305L400.649 274.792ZM436.085 274.792H470.348L455.759 271.546H423.119L436.085 274.792Z" fill="url(#paint0_linear_2_990)" fill-opacity="0.7"/>
<path d="M480.619 271.292C480.689 271.292 480.746 271.349 480.746 271.419C480.746 271.489 480.689 271.546 480.619 271.546H456.929L471.514 274.792H480.619C480.689 274.792 480.746 274.849 480.746 274.919C480.745 274.989 480.689 275.046 480.619 275.046H472.656L480.646 276.824L480.692 276.845C480.732 276.873 480.754 276.924 480.743 276.975C480.731 277.027 480.69 277.063 480.641 277.072L480.591 277.071L471.489 275.046H437.098L451.586 278.673H480.619C480.689 278.673 480.746 278.73 480.746 278.8C480.746 278.87 480.689 278.926 480.619 278.927H452.6L468.881 283.003H480.619C480.689 283.003 480.746 283.06 480.746 283.13C480.746 283.2 480.689 283.257 480.619 283.257H469.896L480.65 285.949C480.718 285.966 480.759 286.035 480.742 286.103C480.725 286.171 480.656 286.212 480.589 286.195L468.851 283.257H430.228L446.329 287.864H480.619C480.689 287.864 480.746 287.921 480.746 287.991C480.746 288.061 480.689 288.118 480.619 288.118H447.215L465.541 293.362H480.619C480.689 293.362 480.746 293.419 480.746 293.489C480.746 293.559 480.689 293.616 480.619 293.616H466.428L480.655 297.687L480.699 297.711C480.737 297.742 480.756 297.794 480.742 297.845C480.722 297.912 480.652 297.951 480.585 297.932L465.505 293.616H421.595L439.616 299.633H480.619C480.689 299.633 480.746 299.69 480.746 299.76C480.746 299.83 480.689 299.886 480.619 299.887H440.377L461.219 306.846H480.619C480.689 306.846 480.746 306.903 480.746 306.973C480.746 307.042 480.689 307.099 480.619 307.1H461.98L480.659 313.336C480.725 313.358 480.762 313.43 480.74 313.497C480.718 313.563 480.645 313.599 480.579 313.577L461.178 307.1H410.423L430.719 315.231H480.619C480.689 315.232 480.745 315.288 480.746 315.358C480.746 315.428 480.689 315.485 480.619 315.485H431.353L455.36 325.103H480.619C480.689 325.104 480.745 325.161 480.746 325.23C480.746 325.3 480.689 325.357 480.619 325.357H455.994L480.667 335.242C480.732 335.268 480.763 335.343 480.737 335.408C480.717 335.457 480.671 335.486 480.622 335.487L480.572 335.478L455.31 325.357H395.308L418.348 336.897H480.619C480.689 336.898 480.746 336.954 480.746 337.024C480.746 337.094 480.689 337.151 480.619 337.151H418.855L446.97 351.233H480.619C480.689 351.233 480.746 351.29 480.746 351.36C480.746 351.43 480.689 351.487 480.619 351.487H447.477L480.675 368.115L480.715 368.146C480.747 368.184 480.756 368.238 480.732 368.285C480.709 368.332 480.66 368.358 480.611 368.355L480.562 368.342L446.912 351.487H373.753L400.019 369.031H480.619C480.689 369.031 480.746 369.088 480.746 369.158C480.745 369.228 480.689 369.285 480.619 369.285H400.399L433.98 391.715H480.619C480.689 391.715 480.746 391.772 480.746 391.842C480.746 391.912 480.689 391.968 480.619 391.969H434.361L478.752 421.618H480.619C480.689 421.618 480.746 421.675 480.746 421.745C480.746 421.815 480.689 421.872 480.619 421.872H479.131L480.69 422.913L480.725 422.948C480.753 422.989 480.754 423.045 480.725 423.089C480.696 423.133 480.644 423.152 480.595 423.142L480.548 423.124L478.674 421.872H370.266L411.15 462.844H480.619C480.689 462.844 480.746 462.901 480.746 462.971C480.746 463.041 480.689 463.097 480.619 463.098H411.403L480.006 531.847C480.028 531.87 480.043 531.901 480.043 531.936C480.042 532.006 479.986 532.063 479.916 532.063H-175.198C-175.236 532.063 -175.27 532.045 -175.293 532.018C-175.297 532.014 -175.299 532.009 -175.302 532.004C-175.306 531.997 -175.313 531.992 -175.316 531.984C-175.33 531.95 -175.327 531.91 -175.309 531.877C-175.303 531.866 -175.297 531.855 -175.288 531.847L-106.57 463.098H-175.337C-175.407 463.098 -175.464 463.041 -175.464 462.971C-175.464 462.901 -175.407 462.844 -175.337 462.844H-106.316L-65.3627 421.872H-173.769L-175.268 422.872C-175.326 422.911 -175.405 422.895 -175.444 422.837C-175.482 422.779 -175.467 422.7 -175.409 422.661L-174.226 421.872H-175.337C-175.407 421.872 -175.464 421.815 -175.464 421.745C-175.464 421.675 -175.407 421.618 -175.337 421.618H-173.845L-129.404 391.969H-175.337C-175.407 391.969 -175.464 391.912 -175.464 391.842C-175.464 391.772 -175.407 391.715 -175.337 391.715H-129.023L-95.4027 369.285H-175.337C-175.407 369.285 -175.464 369.228 -175.464 369.158C-175.464 369.088 -175.407 369.031 -175.337 369.031H-95.0218L-68.725 351.487H-141.884L-175.281 368.2L-175.329 368.213C-175.379 368.216 -175.427 368.19 -175.451 368.143C-175.482 368.081 -175.457 368.004 -175.394 367.973L-142.452 351.487H-175.337C-175.407 351.487 -175.464 351.43 -175.464 351.36C-175.464 351.29 -175.407 351.233 -175.337 351.233H-141.945L-113.805 337.151H-175.337C-175.407 337.151 -175.464 337.094 -175.464 337.024C-175.464 336.954 -175.407 336.897 -175.337 336.897H-113.297L-90.2377 325.357H-150.234L-175.29 335.39C-175.355 335.415 -175.429 335.384 -175.455 335.319C-175.481 335.254 -175.449 335.18 -175.384 335.154L-150.916 325.357H-175.337C-175.407 325.357 -175.464 325.3 -175.464 325.23C-175.464 325.16 -175.407 325.103 -175.337 325.103H-150.282L-126.26 315.485H-175.337C-175.407 315.485 -175.464 315.428 -175.464 315.358C-175.464 315.288 -175.407 315.231 -175.337 315.231H-125.625L-105.316 307.1H-156.078L-175.298 313.513C-175.365 313.535 -175.436 313.499 -175.458 313.433C-175.481 313.366 -175.445 313.295 -175.378 313.272L-156.878 307.1H-175.337C-175.407 307.1 -175.464 307.043 -175.464 306.973C-175.464 306.902 -175.407 306.846 -175.337 306.846H-156.118L-135.262 299.887H-175.337C-175.407 299.887 -175.464 299.83 -175.464 299.76C-175.464 299.69 -175.407 299.633 -175.337 299.633H-134.5L-116.469 293.616H-160.382L-175.303 297.884C-175.37 297.903 -175.441 297.864 -175.46 297.797C-175.48 297.729 -175.441 297.659 -175.373 297.64L-161.306 293.616H-175.337C-175.407 293.616 -175.464 293.559 -175.464 293.489C-175.464 293.419 -175.407 293.362 -175.337 293.362H-160.418L-142.082 288.118H-175.337C-175.407 288.118 -175.464 288.061 -175.464 287.991C-175.464 287.921 -175.407 287.864 -175.337 287.864H-141.195L-125.085 283.257H-163.703L-175.307 286.161C-175.375 286.178 -175.444 286.136 -175.461 286.068C-175.478 286 -175.437 285.932 -175.37 285.915L-164.747 283.257H-175.337C-175.407 283.257 -175.464 283.2 -175.464 283.13C-175.464 283.06 -175.407 283.003 -175.337 283.003H-163.733L-147.445 278.927H-175.337C-175.407 278.927 -175.464 278.87 -175.464 278.8C-175.464 278.73 -175.407 278.673 -175.337 278.673H-146.431L-131.938 275.046H-166.329L-175.311 277.044C-175.379 277.059 -175.447 277.016 -175.462 276.948C-175.478 276.88 -175.434 276.812 -175.366 276.797L-167.496 275.046H-175.337C-175.407 275.046 -175.464 274.989 -175.464 274.919C-175.464 274.849 -175.407 274.792 -175.337 274.792H-166.356L-151.767 271.546H-175.337C-175.407 271.546 -175.464 271.489 -175.464 271.419C-175.464 271.349 -175.407 271.292 -175.337 271.292H480.619ZM-174.893 531.809H-11.4994L22.8717 463.098H-106.211L-174.893 531.809ZM-11.2162 531.809H152.231L152.291 463.098H23.1549L-11.2162 531.809ZM152.485 531.809H315.933L281.68 463.098H152.545L152.485 531.809ZM316.217 531.809H479.609L411.045 463.098H281.964L316.217 531.809ZM-105.957 462.844H22.9987L43.4928 421.872H-65.0033L-105.957 462.844ZM23.2819 462.844H152.291L152.327 421.872H43.777L23.2819 462.844ZM152.545 462.844H281.554L261.131 421.872H152.581L152.545 462.844ZM281.839 462.844H410.792L369.908 421.872H261.414L281.839 462.844ZM-128.947 391.969L-173.388 421.618H-65.1088L-35.473 391.969H-128.947ZM-35.1136 391.969L-64.7494 421.618H43.6207L58.4518 391.969H-35.1136ZM58.735 391.969L43.9039 421.618H152.327L152.352 391.969H58.735ZM152.606 391.969L152.581 421.618H261.004L246.223 391.969H152.606ZM246.507 391.969L261.288 421.618H369.655L340.069 391.969H246.507ZM340.427 391.969L370.013 421.618H478.294L433.903 391.969H340.427ZM-128.566 391.715H-35.2191L-12.7992 369.285H-94.9457L-128.566 391.715ZM-34.8597 391.715H58.5787L69.7985 369.285H-12.4398L-34.8597 391.715ZM58.8619 391.715H152.352L152.372 369.285H70.0817L58.8619 391.715ZM152.606 391.715H246.096L234.916 369.285H152.626L152.606 391.715ZM246.381 391.715H339.816L317.434 369.285H235.199L246.381 391.715ZM340.174 391.715H433.523L399.942 369.285H317.793L340.174 391.715ZM-94.5648 369.031H-12.5453L4.99084 351.487H-68.2679L-94.5648 369.031ZM-12.1859 369.031H69.9254L78.7008 351.487H5.35022L-12.1859 369.031ZM70.2086 369.031H152.372L152.387 351.487H78.985L70.2086 369.031ZM152.626 369.031H234.789L226.044 351.487H152.641L152.626 369.031ZM235.073 369.031H317.18L299.674 351.487H226.327L235.073 369.031ZM317.539 369.031H399.562L373.296 351.487H300.033L317.539 369.031ZM-141.376 351.233H-68.3441L-47.2367 337.151H-113.237L-141.376 351.233ZM-67.8871 351.233H5.24475L19.3209 337.151H-46.7797L-67.8871 351.233ZM5.60413 351.233H78.8278L85.8717 337.151H19.6803L5.60413 351.233ZM79.1119 351.233H152.387L152.4 337.151H86.1559L79.1119 351.233ZM152.641 351.233H225.917L218.897 337.151H152.654L152.641 351.233ZM226.2 351.233H299.422L285.37 337.151H219.18L226.2 351.233ZM299.78 351.233H372.915L351.832 337.151H285.728L299.78 351.233ZM373.372 351.233H446.405L418.29 337.151H352.289L373.372 351.233ZM-112.73 336.897H-46.8568L-29.559 325.357H-89.6693L-112.73 336.897ZM-46.3998 336.897H19.5748L31.11 325.357H-29.1019L-46.3998 336.897ZM19.9342 336.897H85.9987L91.7711 325.357H31.4694L19.9342 336.897ZM86.2829 336.897H152.4L152.41 325.357H92.0553L86.2829 336.897ZM152.654 336.897H218.771L213.018 325.357H152.664L152.654 336.897ZM219.054 336.897H285.117L273.601 325.357H213.301L219.054 336.897ZM285.475 336.897H351.452L334.174 325.357H273.96L285.475 336.897ZM351.908 336.897H417.783L394.743 325.357H334.631L351.908 336.897ZM-149.6 325.103H-89.7299L-70.5101 315.485H-125.578L-149.6 325.103ZM-89.1625 325.103H-29.1781L-14.7611 315.485H-69.9427L-89.1625 325.103ZM-28.7211 325.103H31.3639L40.9781 315.485H-14.3041L-28.7211 325.103ZM31.7233 325.103H91.8981L96.7096 315.485H41.3375L31.7233 325.103ZM92.1823 325.103H152.41L152.419 315.485H96.9938L92.1823 325.103ZM152.664 325.103H212.892L208.097 315.485H152.673L152.664 325.103ZM213.175 325.103H273.348L263.751 315.485H208.381L213.175 325.103ZM273.707 325.103H333.795L319.394 315.485H264.109L273.707 325.103ZM334.251 325.103H394.236L375.033 315.485H319.85L334.251 325.103ZM394.801 325.103H454.676L430.67 315.485H375.598L394.801 325.103ZM-124.944 315.231H-70.0033L-53.7533 307.1H-104.633L-124.944 315.231ZM-69.4349 315.231H-14.3802L-2.19177 307.1H-53.1859L-69.4349 315.231ZM-13.9232 315.231H41.2321L49.36 307.1H-1.73474L-13.9232 315.231ZM41.5914 315.231H96.8366L100.904 307.1H49.7194L41.5914 315.231ZM97.1207 315.231H152.419L152.425 307.1H101.188L97.1207 315.231ZM152.673 315.231H207.97L203.917 307.1H152.679L152.673 315.231ZM208.254 315.231H263.497L255.382 307.1H204.2L208.254 315.231ZM263.855 315.231H319.014L306.839 307.1H255.741L263.855 315.231ZM319.47 315.231H374.526L358.291 307.1H307.296L319.47 315.231ZM375.091 315.231H430.036L409.739 307.1H358.856L375.091 315.231ZM-155.318 306.846H-104.681L-87.3011 299.887H-134.462L-155.318 306.846ZM-103.998 306.846H-53.2455L-39.3392 299.887H-86.6175L-103.998 306.846ZM-52.6781 306.846H-1.81091L8.61975 299.887H-38.7719L-52.6781 306.846ZM-1.35388 306.846H49.6139L56.5699 299.887H9.07678L-1.35388 306.846ZM49.9733 306.846H101.031L104.511 299.887H56.9293L49.9733 306.846ZM101.315 306.846H152.426L152.432 299.887H104.797L101.315 306.846ZM152.68 306.846H203.791L200.322 299.887H152.686L152.68 306.846ZM204.074 306.846H255.129L248.184 299.887H200.605L204.074 306.846ZM255.488 306.846H306.459L296.04 299.887H248.544L255.488 306.846ZM306.916 306.846H357.784L343.89 299.887H296.497L306.916 306.846ZM358.349 306.846H409.105L391.736 299.887H344.456L358.349 306.846ZM409.789 306.846H460.418L439.575 299.887H392.42L409.789 306.846ZM-133.701 299.633H-86.6664L-71.64 293.616H-115.669L-133.701 299.633ZM-85.9838 299.633H-38.8324L-26.809 293.616H-70.9564L-85.9838 299.633ZM-38.265 299.633H9.00061L18.0182 293.616H-26.2416L-38.265 299.633ZM9.45764 299.633H56.8239L62.8375 293.616H18.4752L9.45764 299.633ZM57.1832 299.633H104.638L107.648 293.616H63.1969L57.1832 299.633ZM104.923 299.633H152.433L152.438 293.616H107.933L104.923 299.633ZM152.687 299.633H200.195L197.196 293.616H152.692L152.687 299.633ZM200.478 299.633H247.931L241.927 293.616H197.479L200.478 299.633ZM248.291 299.633H295.66L286.652 293.616H242.287L248.291 299.633ZM296.117 299.633H343.383L331.371 293.616H287.109L296.117 299.633ZM343.949 299.633H391.102L376.085 293.616H331.936L343.949 299.633ZM391.786 299.633H438.814L420.794 293.616H376.768L391.786 299.633ZM-159.495 293.362H-115.708L-99.9916 288.118H-141.159L-159.495 293.362ZM-114.909 293.362H-71.0062L-57.9086 288.118H-99.1918L-114.909 293.362ZM-70.3226 293.362H-26.3021L-15.8226 288.118H-57.225L-70.3226 293.362ZM-25.7347 293.362H18.399L26.2594 288.118H-15.2552L-25.7347 293.362ZM18.8561 293.362H63.0914L68.3326 288.118H26.7164L18.8561 293.362ZM63.4508 293.362H107.775L110.398 288.118H68.692L63.4508 293.362ZM108.06 293.362H152.438L152.443 288.118H110.683L108.06 293.362ZM152.692 293.362H197.069L194.455 288.118H152.697L152.692 293.362ZM197.352 293.362H241.674L236.441 288.118H194.738L197.352 293.362ZM242.034 293.362H286.272L278.421 288.118H236.8L242.034 293.362ZM286.729 293.362H330.864L320.393 288.118H278.878L286.729 293.362ZM331.429 293.362H375.451L362.361 288.118H320.96L331.429 293.362ZM376.134 293.362H420.034L404.327 288.118H363.045L376.134 293.362ZM420.835 293.362H464.617L446.292 288.118H405.128L420.835 293.362ZM-140.271 287.864H-99.2308L-85.4222 283.257H-124.161L-140.271 287.864ZM-98.431 287.864H-57.2738L-45.767 283.257H-84.6224L-98.431 287.864ZM-56.5912 287.864H-15.3158L-6.10876 283.257H-45.0834L-56.5912 287.864ZM-14.7484 287.864H26.6403L33.5465 283.257H-5.54138L-14.7484 287.864ZM27.0973 287.864H68.5865L73.192 283.257H34.0035L27.0973 287.864ZM68.9459 287.864H110.525L112.83 283.257H73.5514L68.9459 287.864ZM110.81 287.864H152.443L152.447 283.257H113.115L110.81 287.864ZM152.697 287.864H194.329L192.032 283.257H152.701L152.697 287.864ZM194.612 287.864H236.188L231.59 283.257H192.315L194.612 287.864ZM236.548 287.864H278.041L271.142 283.257H231.95L236.548 287.864ZM278.498 287.864H319.886L310.687 283.257H271.599L278.498 287.864ZM320.453 287.864H361.727L350.227 283.257H311.254L320.453 287.864ZM362.411 287.864H403.566L389.766 283.257H350.911L362.411 287.864ZM404.367 287.864H445.405L429.304 283.257H390.567L404.367 287.864ZM-162.688 283.003H-124.198L-109.946 278.927H-146.4L-162.688 283.003ZM-123.274 283.003H-84.6615L-72.4447 278.927H-109.022L-123.274 283.003ZM-83.8617 283.003H-45.1322L-34.9515 278.927H-71.6449L-83.8617 283.003ZM-44.4486 283.003H-5.60095L2.54456 278.927H-34.2679L-44.4486 283.003ZM-5.03455 283.003H33.9274L40.0367 278.927H3.11096L-5.03455 283.003ZM34.3844 283.003H73.4459L77.5201 278.927H40.4938L34.3844 283.003ZM73.8053 283.003H112.958L114.997 278.927H77.8795L73.8053 283.003ZM113.242 283.003H152.447L152.451 278.927H115.281L113.242 283.003ZM152.701 283.003H191.905L189.873 278.927H152.705L152.701 283.003ZM192.188 283.003H231.338L227.27 278.927H190.156L192.188 283.003ZM231.696 283.003H270.762L264.66 278.927H227.629L231.696 283.003ZM271.218 283.003H310.18L302.042 278.927H265.116L271.218 283.003ZM310.747 283.003H349.593L339.42 278.927H302.608L310.747 283.003ZM350.277 283.003H389.006L376.798 278.927H340.103L350.277 283.003ZM389.806 283.003H428.418L414.173 278.927H377.597L389.806 283.003ZM429.341 283.003H467.837L451.555 278.927H415.097L429.341 283.003ZM-145.386 278.673H-109.058L-96.3763 275.046H-130.893L-145.386 278.673ZM-108.134 278.673H-71.684L-60.8138 275.046H-95.4535L-108.134 278.673ZM-70.8841 278.673H-34.3177L-25.2592 275.046H-60.014L-70.8841 278.673ZM-33.6342 278.673H3.05139L10.2994 275.046H-24.5756L-33.6342 278.673ZM3.6178 278.673H40.4176L45.8541 275.046H10.8658L3.6178 278.673ZM40.8746 278.673H77.774L81.4 275.046H46.3112L40.8746 278.673ZM78.1334 278.673H115.124L116.937 275.046H81.7594L78.1334 278.673ZM115.408 278.673H152.451L152.454 275.046H117.221L115.408 278.673ZM152.705 278.673H189.747L187.938 275.046H152.708L152.705 278.673ZM190.03 278.673H227.016L223.397 275.046H188.221L190.03 278.673ZM227.376 278.673H264.28L258.849 275.046H223.756L227.376 278.673ZM264.736 278.673H301.535L294.294 275.046H259.305L264.736 278.673ZM302.101 278.673H338.786L329.733 275.046H294.86L302.101 278.673ZM339.469 278.673H376.038L365.174 275.046H330.417L339.469 278.673ZM376.837 278.673H413.286L400.612 275.046H365.973L376.837 278.673ZM414.21 278.673H450.541L436.053 275.046H401.536L414.21 278.673ZM-165.188 274.792H-130.923L-117.953 271.546H-150.596L-165.188 274.792ZM-129.878 274.792H-95.4886L-84.139 271.546H-116.908L-129.878 274.792ZM-94.5648 274.792H-60.0531L-50.3246 271.546H-83.2152L-94.5648 274.792ZM-59.2533 274.792H-24.6254L-16.5179 271.546H-49.5248L-59.2533 274.792ZM-23.9408 274.792H10.8063L17.2926 271.546H-15.8334L-23.9408 274.792ZM11.3737 274.792H46.235L51.1002 271.546H17.86L11.3737 274.792ZM46.692 274.792H81.653L84.8981 271.546H51.5573L46.692 274.792ZM82.0123 274.792H117.064L118.688 271.546H85.2575L82.0123 274.792ZM117.348 274.792H152.454L152.457 271.546H118.972L117.348 274.792ZM152.708 274.792H187.812L186.194 271.546H152.711L152.708 274.792ZM188.095 274.792H223.144L219.905 271.546H186.477L188.095 274.792ZM223.503 274.792H258.469L253.609 271.546H220.263L223.503 274.792ZM258.925 274.792H293.787L287.306 271.546H254.065L258.925 274.792ZM294.353 274.792H329.099L320.997 271.546H287.872L294.353 274.792ZM329.783 274.792H364.414L354.691 271.546H321.68L329.783 274.792ZM365.214 274.792H399.725L388.381 271.546H355.491L365.214 274.792ZM400.649 274.792H435.039L422.073 271.546H389.305L400.649 274.792ZM436.085 274.792H470.348L455.759 271.546H423.119L436.085 274.792Z" fill="url(#paint1_linear_2_990)"/>
<g style="mix-blend-mode:screen" filter="url(#filter0_f_2_990)">
<path d="M114.748 259.804C227.421 -58.8482 469.971 -210.141 530.811 -252.121L-244.779 -12.0204L-130.701 669.188C36.1218 630.836 8.2748 560.922 114.748 259.804Z" fill="url(#paint2_radial_2_990)" fill-opacity="0.25"/>
</g>
<circle cx="166.946" cy="56.475" r="1.08797" transform="rotate(-180 166.946 56.475)" fill="#EE7639" fill-opacity="0.15"/>
<circle cx="201.759" cy="47.772" r="1.08797" transform="rotate(-180 201.759 47.772)" fill="#EE7639"/>
<circle cx="48.0468" cy="53.853" r="1.08797" transform="rotate(-180 48.0468 53.853)" fill="#EE7639" fill-opacity="0.3"/>
<circle cx="30.4201" cy="160.503" r="1.63173" transform="rotate(-180 30.4201 160.503)" fill="#EE7639" fill-opacity="0.3"/>
<circle cx="102.493" cy="180.347" r="1.63173" transform="rotate(-180 102.493 180.347)" fill="#EE7639" fill-opacity="0.3"/>
<circle cx="129.777" cy="51.2168" r="1.63173" transform="rotate(-180 129.777 51.2168)" fill="#EE7639" fill-opacity="0.15"/>
<circle cx="57.2513" cy="197.719" r="1.63173" transform="rotate(-180 57.2513 197.719)" fill="#EE7639" fill-opacity="0.1"/>
<circle cx="93.9434" cy="166.636" r="1.63173" transform="rotate(-180 93.9434 166.636)" fill="#EE7639" fill-opacity="0.15"/>
<circle cx="57.0522" cy="90.6934" r="1.63173" transform="rotate(-180 57.0522 90.6934)" fill="#EE7639" fill-opacity="0.1"/>
<circle cx="26.0339" cy="69.0813" r="1.63173" transform="rotate(-180 26.0339 69.0813)" fill="#EE7639" fill-opacity="0.3"/>
<circle cx="90.613" cy="20.7561" r="1.63173" transform="rotate(-180 90.613 20.7561)" fill="#EE7639" fill-opacity="0.772549"/>
<circle cx="259.235" cy="222.74" r="0.54376" transform="rotate(-180 259.235 222.74)" fill="#EE7639" fill-opacity="0.15"/>
<circle cx="209.798" cy="198.047" r="0.54376" transform="rotate(-180 209.798 198.047)" fill="#EE7639" fill-opacity="0.3"/>
<circle cx="263.345" cy="155.477" r="0.54376" transform="rotate(-180 263.345 155.477)" fill="#EE7639" fill-opacity="0.1"/>
<circle cx="135.047" cy="107.014" r="0.54376" transform="rotate(-180 135.047 107.014)" fill="#EE7639" fill-opacity="0.3"/>
<circle cx="254.507" cy="181.021" r="0.54376" transform="rotate(-180 254.507 181.021)" fill="#EE7639"/>
<circle cx="98.8887" cy="188.046" r="0.54376" transform="rotate(-180 98.8887 188.046)" fill="#EE7639" fill-opacity="0.1"/>
<circle cx="82.616" cy="39.6715" r="0.54376" transform="rotate(-180 82.616 39.6715)" fill="#EE7639" fill-opacity="0.15"/>
<circle cx="98.2855" cy="131.865" r="0.54376" transform="rotate(-180 98.2855 131.865)" fill="#EE7639" fill-opacity="0.1"/>
<circle cx="267.938" cy="76.238" r="0.54376" transform="rotate(-180 267.938 76.238)" fill="#EE7639" fill-opacity="0.3"/>
<circle cx="195.876" cy="237.18" r="0.54376" transform="rotate(-180 195.876 237.18)" fill="#EE7639" fill-opacity="0.3"/>
<circle cx="190.847" cy="93.9957" r="0.54376" transform="rotate(-180 190.847 93.9957)" fill="#EE7639" fill-opacity="0.772549"/>
<circle cx="285.344" cy="115.402" r="0.54376" transform="rotate(-180 285.344 115.402)" fill="#EE7639" fill-opacity="0.15"/>
<circle cx="32.9551" cy="119.753" r="0.54376" transform="rotate(-180 32.9551 119.753)" fill="#EE7639" fill-opacity="0.1"/>
<circle cx="64.5769" cy="152.05" r="0.54376" transform="rotate(-180 64.5769 152.05)" fill="#EE7639" fill-opacity="0.3"/>
<circle cx="239.569" cy="22.1031" r="0.54376" transform="rotate(-180 239.569 22.1031)" fill="#EE7639" fill-opacity="0.1"/>
<circle cx="189.64" cy="157.873" r="0.54376" transform="rotate(-180 189.64 157.873)" fill="#EE7639" fill-opacity="0.15"/>
<circle cx="73.5695" cy="54.4803" r="0.54376" transform="rotate(-180 73.5695 54.4803)" fill="#EE7639" fill-opacity="0.3"/>
<circle cx="189.605" cy="83.3345" r="0.54376" transform="rotate(-180 189.605 83.3345)" fill="#EE7639" fill-opacity="0.1"/>
<circle cx="206.057" cy="89.8863" r="0.54376" transform="rotate(-180 206.057 89.8863)" fill="#EE7639" fill-opacity="0.3"/>
<circle cx="30.054" cy="102.347" r="0.54376" transform="rotate(-180 30.054 102.347)" fill="#EE7639" fill-opacity="0.15"/>
<circle cx="172.919" cy="11.5617" r="0.54376" transform="rotate(-180 172.919 11.5617)" fill="#EE7639" fill-opacity="0.1"/>
<circle cx="165.081" cy="49.0449" r="0.54376" transform="rotate(-180 165.081 49.0449)" fill="#EE7639" fill-opacity="0.1"/>
<circle cx="25.7025" cy="216.938" r="0.54376" transform="rotate(-180 25.7025 216.938)" fill="#EE7639" fill-opacity="0.3"/>
<circle cx="61.504" cy="15.0079" r="0.54376" transform="rotate(-180 61.504 15.0079)" fill="#EE7639" fill-opacity="0.1"/>
<path d="M282.987 43.0579L282.045 41.4259L283.93 41.4259L282.987 43.0579Z" fill="#EE7639"/>
<circle cx="92.426" cy="92.1937" r="0.54376" transform="rotate(-180 92.426 92.1937)" fill="#EE7639" fill-opacity="0.1"/>
<path d="M18.9942 38.7063L18.052 37.0744L19.9364 37.0744L18.9942 38.7063Z" fill="#EE7639" fill-opacity="0.1"/>
<path d="M20.0884 11.9218L19.8576 11.0646L19.0004 10.8338L19.8576 10.603L20.0884 9.74583L20.3192 10.603L21.1763 10.8338L20.3192 11.0646L20.0884 11.9218Z" fill="#EE7639" fill-opacity="0.1"/>
<path d="M236.571 51.761L236.34 50.9038L235.483 50.673L236.34 50.4422L236.571 49.5851L236.802 50.4422L237.659 50.673L236.802 50.9038L236.571 51.761Z" fill="#EE7639"/>
<path d="M154.183 98.0724L153.953 97.2152L153.096 96.9844L153.953 96.7536L154.183 95.8965L154.414 96.7536L155.271 96.9844L154.414 97.2152L154.183 98.0724Z" fill="#EE7639" fill-opacity="0.1"/>
<path d="M206.11 18.3992L205.879 17.542L205.022 17.3112L205.879 17.0804L206.11 16.2232L206.341 17.0804L207.198 17.3112L206.341 17.542L206.11 18.3992Z" fill="#EE7639" fill-opacity="0.8"/>
<path d="M191.06 175.888L190.829 175.031L189.972 174.8L190.829 174.569L191.06 173.712L191.29 174.569L192.148 174.8L191.29 175.031L191.06 175.888Z" fill="#EE7639" fill-opacity="0.15"/>
<path d="M98.1553 68.9349L97.9245 68.0778L97.0674 67.847L97.9245 67.6162L98.1553 66.759L98.3861 67.6162L99.2433 67.847L98.3861 68.0778L98.1553 68.9349Z" fill="#EE7639" fill-opacity="0.3"/>
<circle cx="282.443" cy="82.0401" r="0.54376" transform="rotate(-180 282.443 82.0401)" fill="#EE7639" fill-opacity="0.3"/>
<path d="M293.606 178.962C281.272 133.344 242.516 32.6706 186.165 -5.07809" stroke="url(#paint3_linear_2_990)" stroke-opacity="0.1" stroke-width="2.90102"/>
<path d="M106.542 -9.73134C106.186 26.5099 80.4068 116.833 -19.8595 188.195" stroke="url(#paint4_linear_2_990)" stroke-opacity="0.1" stroke-width="2.90102"/>
<defs>
<filter id="filter0_f_2_990" x="-352.08" y="-359.422" width="990.193" height="1135.91" filterUnits="userSpaceOnUse" color-interpolation-filters="sRGB">
<feFlood flood-opacity="0" result="BackgroundImageFix"/>
<feBlend mode="normal" in="SourceGraphic" in2="BackgroundImageFix" result="shape"/>
<feGaussianBlur stdDeviation="53.6506" result="effect1_foregroundBlur_2_990"/>
</filter>
<linearGradient id="paint0_linear_2_990" x1="152.641" y1="285.293" x2="152.641" y2="489.09" gradientUnits="userSpaceOnUse">
<stop offset="0.0640087" stop-color="white" stop-opacity="0"/>
<stop offset="0.258526" stop-color="white" stop-opacity="0.8"/>
<stop offset="0.486011" stop-color="white" stop-opacity="0"/>
<stop offset="1" stop-color="white" stop-opacity="0"/>
</linearGradient>
<linearGradient id="paint1_linear_2_990" x1="-6.02736" y1="329.534" x2="307.283" y2="329.534" gradientUnits="userSpaceOnUse">
<stop stop-color="#0D1E33"/>
<stop offset="0.52582" stop-color="#0D1E33" stop-opacity="0"/>
<stop offset="1" stop-color="#0D1E33"/>
</linearGradient>
<radialGradient id="paint2_radial_2_990" cx="0" cy="0" r="1" gradientTransform="matrix(-387.205 -219.884 219.519 -387.427 325.325 185.902)" gradientUnits="userSpaceOnUse">
<stop offset="0.409332" stop-color="#EE7639"/>
<stop offset="1" stop-opacity="0"/>
<stop offset="1" stop-color="#2D2E32" stop-opacity="0"/>
</radialGradient>
<linearGradient id="paint3_linear_2_990" x1="228.733" y1="-9.9766" x2="280.564" y2="136.472" gradientUnits="userSpaceOnUse">
<stop stop-color="white"/>
<stop offset="1" stop-color="white" stop-opacity="0"/>
</linearGradient>
<linearGradient id="paint4_linear_2_990" x1="107.19" y1="-13.4864" x2="30.2981" y2="184.283" gradientUnits="userSpaceOnUse">
<stop stop-color="white"/>
<stop offset="1" stop-color="white" stop-opacity="0"/>
</linearGradient>
</defs>
</svg>
